<?xml version="1.0" encoding="utf-8"?>
<!-- Generator: Adobe Illustrator 27.7.0, SVG Export Plug-In . SVG Version: 6.00 Build 0)  -->
<svg version="1.1" id="_xF91C_迹_x5F_1" xmlns="http://www.w3.org/2000/svg" xmlns:xlink="http://www.w3.org/1999/xlink" x="0px"
	 y="0px" viewBox="0 0 500.1 210.3" style="enable-background:new 0 0 500.1 210.3;" xml:space="preserve">
<style type="text/css">
	.st0{fill:none;stroke:#000000;stroke-width:0.25;stroke-miterlimit:10;}
	.st1{fill:none;stroke:#000000;stroke-width:0.25;stroke-linecap:round;stroke-linejoin:round;stroke-miterlimit:10;}
</style>
<path class="st0" d="M0,209.8h133.3c-7.6-44.3,2.8-109.5,46.7-134.7c0.7-0.4,6.9,9.5,7.4,9.6l6.3,7.1c1.2,1.9-12.1-3.5-12.1-3.2
	c5.1,3.5,10.6,4.5,16.6,6.2c3,2.4,16.4,15.7,18,23.1c0-7.8-15.1-21.7-17.6-24.1l-17.3-18.9c-0.8-0.2,6.7-7.3,6.7-7.6
	c1-0.5,1.1,3.1,3.1,4.9c0.3,0.3,1,1,1.9,1.9c17.6,17.9,27.6,27,29.7,27c1.2,0.6-3.3,4.6-3.6,5.6c1.7-1.6,2.8-2.9,4.9-4.6
	c-0.5-1.4-1.2-2.8-1.7-3c-1-0.2-5.6-2.6-6.9-5.3c-13.2-10.1-21.1-20.4-28.1-29.5c-0.3-0.3-4.3-15.3-7-24.8
	c-2.5-9.1-2.8-15.5,2.8-23.4c5.5-7.9,19.2-16.2,33.6-16c14.6,0.2,32.1,14.6,32.7,16.9c0.4,1.7-0.5,5.1-1.9,6.1
	c-0.6,0.4-1.2,0.4-1.9,0c-3.4-2.3-8.7-2.9-11.5-2.1c-6.5,0.8-10.1,13.1-10.1,20.1c-0.6,4.2,0.3,7.5-4.8,5.8
	c-1.3-0.2-1.7-0.7-3.9-2.4c-9.4-8.4-15.7-7.6-16.6,3.7c-0.1,2.8,3.3,7.2,3.4,7.2c0.7,8.1-3.7,9.9-11.4,7.9l-0.2,1
	c7.7,1.5,12.6,1.6,11.9-6.8c0-0.3,0.3-0.5,0.5-0.3c6.5,3.7,8.9,3.5,9.8,2.8c2-3.1-1.2-7.6-1.7-10.6c-1.2-4.2-2.1-7.2-5.3-6.9
	c-2.6,0.3-4.3,1.2-3.5,3.3c0.2-2.6,2.4-3.1,5.6-2.6c0.4,0.1-3.4,4.2-3.4,4.3c0.3,5.5,1.9,8,6.9,5.7c0.7-0.3,2.4,4.6,0.7,6.2
	c-4.1,2.5-12.3-7.9-12-12.5c0-4.5,1.5-7.1,4.4-7.8c3.3-1,9.6,7.5,12.6,8.8c7.8,3.3,8.1-3.9,9.4-11.9c1.4-7.3,1.7-13.7,9.5-15
	c4.9-0.1,7.5,1.5,9.9,3.3c0.8,2.3,4.9,13.9,4.6,15.3c-0.3,1.5-2.4,1.3-2.8,2.6c0.6,2.4,6.8,9,6.2,11.1c-0.5,3.2-2.4,3.3-3.7,3.3
	c-5.2,0.3,3.1,5.5-2.5,7.7c1.3,2.6-1.5,4.4-3.5,5.5c2.9,5.1-1.1,7.8-6.1,9c-2.3,0.6-11.4-1.9-15.3-3.5c0.2,1,6,1.9,4.8,2.7
	c-3.2,1.2-6.9,9.4-9.6,15c2.1-0.1,1.9-3.5,3-3.3c4.2,3.7,8.6,5.8,5.1,13.4c-0.8,5.8-1.4,8.3-2.8,12.7c-0.8,1-2-2.3-4.2-4
	c3.3,4.2,6.2,10.2,6.6,15.8c0.2-4-0.1-7.6-2-10.6c-0.2-0.3,0.2-0.7,0.5-0.5c4.3,3.1,9.6,7,12.8,7c0.8,0.4,0.1,2,0.1,5.3
	c0.5-1.2,0.2-4.6,1.5-4.4c1.5,1.9,4.4,1.5,5.8,3.3c-0.5,2.6-1,5.8-1,9.2c0.6-3.8,0.8-7.6,2.2-8.9c0.3,0,32.9-1.2,35.6-1.7
	c3.1-0.6,10-7.7,14-11.6c-2.6,1.2-4.6,4.1-7.2,6c-0.8-0.5,67.8-103,67.7-103.5c0.1-0.7,113.1-0.8,113.4-1
	c1.3,0.4-105.9,192.6-106.1,192.9h-8.2c-0.1,0-0.2-0.1-0.3-0.1c-0.4-0.1,103.5-186.8,103.5-187l-98-0.6L300,110.8
	c1.4-0.4,3.5-1.3,4.6-2.5c3.3-3.3,11.2,0.3,15,2.4c-0.3-1-3.4-1.9-5.6-2.6c-0.4-0.1-0.3-0.7,0.1-0.7c5.8,0.2,7.5,0.9,10.5,3.3
	c1.5,1.7-1,2.8-3.3,2.1c-1.7-0.2-2.6,1.5-4.6,0.3c-1.7-1-6.3-1.2-9.1,0.3c-5.2,3.6-7.5,10.1-5.9,17.4c1.3,1.9,7.1,1.2,9.6,3.4
	c0.3,0.1-3.6,3.4-3.6,3.5c-22.5-4.6-29.9,0.1-55.3,9.1c-2.5,0.8-4.6,1.2-4.4,4.1c0,0.3-0.6,0.5-0.7,0.1c-0.1-0.1-1.5-4.2-1.2-4.2
	c-0.8-1.3-13.1-6-16-6.3c-2.1-0.3-3.7-3.4-4-4l-7-5.6c-6.6-2.1-10.3-0.6-15.5,1.9c-0.8-5.1,10-6.4,15.5-4.2
	c-6.6-5.8-13.1-14.4-22.7-16.6c-8.9-1.3-20.2,9.6-22,11.7c-1.9,2.4-2.5,7.2-2.6,8.2c8.4,6.7,26.6,11.6,28.8,11.3
	c17.3-4.3,25.7-7.6,37.5,6l9,1.9c2,1-10.5,2.8-12.5,3.7c-3.5,1-12.8,7.1-18.9,11.4c10.5-6.3,24.3-12.7,32.2-14.3
	c0.3-0.1,5.1,2.3,5.4,2.3c0.3,0.1,1.3,2.8,3.1,3.5c1.2,0.4,8.3-0.8,13-1.8c0.4-0.1,10.7-17.5,11.5-17c0.1,0.1,0.2,0.3,0.1,0.5
	l-8.9,16.4c0.1,0.1,3.2-0.6,3.3-0.3c1.2,11.2-4.1,22.6-10,35.2c-0.8,0.6-8.8-4-12.7-9.2c-3.3-4.8-4.5-17.3-1.9-24.3
	c-4.7,6.4-2.8,21.2-0.3,25.9c2.4,4.4,13.7,9.2,15.7,10c6.9-12.4,9.9-24.9,10.6-38.4c2.4-0.6,28.9-12.4,35.5-20.1l-9.9-8.7
	c-0.3-0.4-0.5-5.3,3.3-9.1c3.7-3.5,13.7-2.6,14.1-2.5c0.2,0,5.5,3.1,5.7,3.2c0,2.3-0.6,4.5-2.2,6.9l-9.7,8.8l0.2,0.2
	c18.2-13.5,10.5-16.7,13.8-35l-17.2,7.4c-0.3,0.2-1.6-1.2-1.9-1.2c-0.2-0.1-0.1-0.5,0.1-0.6l19.4-9.2c0.4-0.2,0.6,0.6,0.8,0.8
	c0.7-1.3,2.6-4.6,4-7.1c0.9-2.1,15.5-11.6,16.8-4.9c-2,3.7-9.5,3.8-11.4,10.5c1.7-4.9,13.1-9.6,15.3-10.3c0.1,0.2,7.9-2.6,6.6-0.9
	c-0.1,0.1-4.6,3.3-4.7,3.3c-1.4,0.8-13.6,4.8-14.9,8.5c3.9-4,10.6-6.8,15.9-5.5c2.9,0.8,2,3.7-0.6,3.7c-4.2-0.1-8.3,1.5-10.7,6.4
	c1.7-1.7,3.9-3.8,5.1-4.3c3.5-1,9.5,0.7,8.9,4.2c-1.8,3.3-5.7-4.1-9.3,6.3c1.5-0.8,3.7-4,5.5-3.7c1.9,0.1,3.7,1.4,4.2,2.8
	c1.2,2.4-1.9,6-2.8,2.1c-1,2.9-4.4,7.5-5.5,12.5c-0.8,3.8-2,9.5-7.3,13.2c-5.9,4.3-9.1,9.5-14.1,14.4l21.2,17.1l11.6-13.2
	l-18.2-14.4c-0.3,0.1-11.2,11.7-11.7,11.4c-0.1-0.3-2.8-0.8-2.1-1.5l14.1-13.9c0.6-0.7,22.5,17.2,22.9,17.2c0.8,0.6-15,17.2-15,17.7
	c-0.6,0.8-23.9-18.9-24.4-18.9c-12.3,13.2-32.7,28.4-49.2,42.7c-0.2,0.7-4.5-3.9-4.7-3.9c2.6,5.1,4.4,8.9,6.6,3.5
	c0.1-0.3,0.8-0.2,0.7,0.2c1.5,1.5-15.2,25.3-21.8,15.9c5.3-4.2,14.4-8.5,14.4-9.8c-1.3-0.3-8.3,0.8-13,1.7
	c-1.3,10.8-1.7,6.9-2.4-0.6l-37.7-11c5.5,9.6,4.2,15.5-3.2,21.8c-0.3-0.2-4.2,0.4-3.9-0.4c9.6-9.8,11.4-7,4.1-22.3l-30.8-16.1
	c-2.2,1.9-24.3,21.4-26.2,25.2c-2.2,4.2-13.9,8.5-16.6,9.4c-0.8-0.1-0.4-0.8,0.3-0.9c2.9-1.4,12.4-9.2,13.3-11
	c-3.1,2.3-11,5.8-13.1,4c12.3-7.1,25.4-16.5,39.7-28.3c-7.3-3.1-24.1-8.3-27-18c1.7,12.6,18.4,15.6,24.4,17.7
	c1.5,0.8-46.4,33-46.3,33.6l0.3,8h363.9"/>
<path class="st1" d="M333.5,70.7c1.9,0.7,3.9,1.3,5.8,2c1.4,0.5,2.8,1,4.2,1.4c-0.1-0.4,0.2-0.9,0.3-1.3c0.3-0.8,0.1-1.8-0.3-2.6
	c0.3-0.1,0.6,0.2,0.6,0.6c0.1,0.3,0,0.6,0.2,0.8c0.1,0,0.2-0.1,0.3-0.2s0.1-0.2,0.1-0.3c0.1-0.3,0.2-0.7,0.5-1
	c-0.1,0.6-0.1,1.1-0.1,1.7c0.5-0.3,1-0.5,1.5-0.7c-0.1,0.3-0.4,0.6-0.8,0.7s-0.7,0.3-0.8,0.6c-0.1,0.2,0.1,0.5,0.3,0.6
	c0.2,0.1,0.4,0.2,0.7,0.3c0.3,0.1,0.6,0.1,0.9,0c0.3-0.1,0.6-0.3,0.7-0.6c0.1-0.2,0.1-0.4,0.1-0.6c0.1-0.7,0.8-1.2,0.8-1.9
	c0.1-0.6-0.2-1.1-0.3-1.7c-0.1-0.2-0.1-0.4-0.2-0.6c-0.1-0.2-0.3-0.3-0.5-0.4c-0.4-0.2-0.9-0.5-1.3-0.7c-0.1-0.1-0.3-0.1-0.5-0.1
	s-0.3,0.1-0.4,0.3c0,0.1,0,0.2-0.1,0.3c-0.1,0.1-0.2,0.1-0.3,0.2c-0.4,0.3-0.6,1-1,1.1c-0.3,0.1-0.8-0.1-0.9,0.2
	c-0.1,0.1-0.1,0.2-0.1,0.3c-0.1,0.4-0.3,0.8-0.6,1c-0.1,0.1-0.2,0.2-0.2,0.3s0.1,0.1,0.1,0.1c0.1,0.2,0.3,0.3,0.5,0.4
	c0.1,0.1,0.2,0.1,0.3,0.2c0.1,0.1,0.1,0.3,0.1,0.4c0.1,0.5,0.3,0.8,0.7,1.1c0.1,0.1,0.3,0.3,0.6,0.4s0.3-0.1,0.6-0.3
	c0.1,0.1,0,0.4-0.1,0.6c-0.1,0.2-0.2,0.4,0,0.6c0.1-0.1,0.3,0.1,0.4,0.3c0.2,0.2,0.5,0.3,0.8,0.4c0.6,0.3,1.3,0.5,2,0.6
	c0.3,0.1,0.6-0.3,0.6-0.6c0.3-0.6,0.3-1.4,0.6-2.1c0-0.1,0.1-0.1,0.1-0.2c0.3-0.1,1.4,0.3,1.7,0.4c0.7,0.2,1.4,0.4,2,0.6
	c0.9,0.3,1.7,0.6,2.6,0.8c-0.2,0.6-0.8,2.4-1,3c-0.9-0.1-1.8-0.4-2.7-0.6c-0.5-0.1-1-0.3-1.5-0.4c-0.6-0.1-1.1-0.2-1.5-0.6
	c0.1-0.6,0.3-1,0.4-1.6c0-0.1,0.1-0.1,0.1-0.2c0.1-0.1,0.1-0.1,0.1-0.1c0.1-0.1,0.3-0.2,0.4-0.3c0.1,0,0.1-0.1,0.1-0.1s0.1,0,0.2,0
	c1.2,0.4,2.6,0.8,3.8,1.3c-0.1,0.6-0.3,1.1-0.4,1.7l0.4,0.6c0.3,0.3,1.5,0.1,1.8,0.2c-0.1-0.2,0.1-1.1,0-1.3l-0.5-0.3l-0.3,2.1
	l0.8,0.6c0.3,0.1,1.8,0.3,2,0.6c0.8-2.1,1.5-4.1,2.2-6.2c0.3-0.8,0.6-1.5,0.8-2.2c0.1,0,0.1,0,0.2,0c-0.3,2.1-1.5,4.1-1.7,6.2
	c0.1,0,0.3-0.1,0.4-0.3c0.1-0.1,0.1-0.1,0.1-0.3c0-0.1,0.1-0.2,0-0.3c-0.1-0.3-0.8-0.6-1-0.6c-0.5-0.2-1-0.4-1.5-0.7
	c-0.8-0.4-1.7-0.8-2.6-1.2c0.1-0.3,0.2-1,0.3-1.3c-1.1-0.5-3-0.8-4.1-1l-0.3-1c0.2-0.6,0.6-2,0.8-2.6c0.9,0.2,4.2,1.2,5.1,1
	c1-0.6,1.5-2.1,1.2-3.2c-1.2,0-5.8-0.9-6.7,0c-0.5,0.8-0.8,2.2-0.8,3.2c-0.1,0.6-0.3,1.1-0.3,1.7c0.1-1,1.1-2.7,1.4-3.7
	c0.1-0.3,0.2-0.8,0.3-1.2c0.1-0.3,0.1-1,0.3-1.2c0.1-0.1,0.2-0.2,0.3-0.3c0.2-0.1,0.3-0.2,0.6-0.3c0.8-0.3,1.6-0.2,2.4-0.1
	c1.3,0.1,2.6,0.3,4,0.3c0.1,0,0.2,0,0.3,0.1s0.2,0.1,0.3,0.2c0.7,0.7,1.3,1.5,2.1,2.1c0.3,0.3-0.1,1.1-0.1,1.7
	c-0.1,0.8-0.1,1.6-0.3,2.4c0.3-0.5,0.6-1,0.8-1.5c0-0.1,0.1-0.1,0.1-0.1c0.1-0.1,0.1-0.1,0.2,0c2.4,0.1,4.7,0.3,7.1,0.5
	c0.1,0,0.1,0,0.2-0.1c0.1,0,0.1-0.1,0.1-0.1c0.1-0.3,0.3-0.6,0.4-0.9c0,1-0.4,1.9-0.8,2.8c-0.9,2.3-1.5,4.6-2.4,6.9
	c-0.3,1-0.7,1.9-1.3,2.8c-0.1-1,0.1-2,0.4-3c0-0.1,0.1-0.2,0-0.3c0-0.1-0.1-0.1-0.1-0.1c-1.6-0.8-3.6-0.6-5.3-1.4
	c-0.1-0.1-0.2-0.1-0.3-0.2c-0.1-0.1-0.1-0.2-0.1-0.3c-0.1-0.8-0.1-1.5,0.1-2.2c0-0.1,0.1-0.2,0.1-0.3c0.1-0.1,0.1,0,0.3,0
	c1.7,0.4,3.5,0.6,5.3,0.4c0.3,0,0.5-0.1,0.7-0.1c0.3-0.1,0.5-0.3,0.7-0.6c0.4-0.4,0.8-0.9,0.9-1.5c0-0.1,0.1-0.2,0-0.3
	c-0.1-0.1-0.1-0.1-0.2-0.1c-1.1-0.2-2.1-0.3-3.3-0.4c-0.6-0.1-1.1-0.1-1.7-0.1c-0.3,0-1.1-0.2-1.4,0.1c-0.1,0.2-0.2,0.6-0.3,0.8
	c-0.1,0.5-0.3,0.9-0.4,1.4c-0.7,2.1-1.4,4.4-2,6.5c-0.1,0.2-0.1,0.5-0.2,0.7c2.1,0.8,7.1,2.4,9.4,3.1l0.6-0.8
	c0.1-0.1-0.1-1.1-0.1-1.3c0-0.3,0-0.7,0-1.1c0.1-0.5,0.2-1,0.4-1.5c0.6-1,1-2,1.2-3.2c0.2,0.1,0.4,0.1,0.7,0.2
	c0,0.6-0.3,1.1-0.6,1.6c-0.3,0.7-0.5,1.5-0.6,2.2c-0.1,0.3-0.1,0.7-0.1,1c-0.1,0.9,0.1,1.7,0.6,2.6c0.1,0.1,0.1,0.1,0.1,0.2
	c0.1,0.1,0.1,0.1,0.2,0.1c0.2,0,0.5,0.1,0.7,0.1c0.1,0,0.1,0,0.1,0s0.1-0.1,0.1-0.2c0.3-1,0.7-2.1,1-3.1c0.5-1.4,1-2.8,1.1-4.3
	c-1.3-0.3-2.6-0.6-4-0.8c-0.1-0.5,0.1-1.1,0.3-1.5c0.1-0.1,0.1-0.1,0.3-0.2c0.1,0,0.1,0,0.3,0c2,0.3,4,0.6,6,1
	c2.1,0.4,4.8,2.3,7,2.4l1.2-1c0.8-3.1,2.7-9.4,4-12.2c0,0-6.1,0.4-6.4,0.5c-1.2,0.2-3.4,0.1-4.3,0.9c-1,1.9-1.7,4.1-2.2,6.2
	c-0.1,0.6-0.3,1.2-0.5,1.7c0.1-0.2-0.1-0.6-0.1-0.8c-0.1-0.2-0.2-0.4-0.3-0.6c-0.3-0.3-0.7-0.6-1.1-0.9c0-0.4-0.4-1.6-0.1-2
	c1-1.7,1.3-3.8,2-5.8c0-0.1,0.1-0.1,0-0.2c0-0.1-0.1-0.1-0.1-0.1c-1.1-0.9-2.1-1.8-3.3-2.7c-0.5,1.3-1,2.7-1.1,4.1
	c0,0.1,0,0.1,0,0.2c0.1,0.1,0.1,0.1,0.2,0.1c1,0.6,2.1,1,3,1.7c0.3,0.3,0.4,0.3,0.6,0.6c0.1,0.5-0.2,1.2-0.5,1.6
	c-0.2,0.3-0.2,0.8-0.5,1.1c-0.1,0.1-0.3,0.3-0.6,0.3c-0.6,0.1-0.9-0.6-1.2-1c-0.4-0.3-0.8-0.6-1.2-0.8c-0.9-0.4-1.9-0.7-2.8-0.7
	c-0.1,0-0.3,0-0.3,0.1c0.1,0.1,0.2,0,0.3-0.1c0.6-0.9,0.8-1.9,1.2-3c0.1-0.3,0.2-0.6,0.4-0.8c0.1-0.1,0.3-0.2,0.3-0.3
	c0.3-0.3,0.2-0.8,0.2-1.2c-0.1,0-0.2,0-0.3,0c-0.1,0.6-0.3,1.1-0.6,1.7c-0.2,0.3-0.4,0.6-0.8,0.7c-0.3,0.1-0.6,0.1-0.8,0.1
	c-1-0.1-2-0.1-3-0.2c-0.1,0-0.3,0-0.3-0.1c-0.1-0.1-0.1-0.3,0-0.4c0.3-0.9,0.7-1.8,1.1-2.6c0.1-0.1,0.1-0.1,0.1-0.2
	c0.1-0.1,0.2-0.1,0.3-0.1c1.3,0,2.7,0.1,4-0.2c0.3-0.1,0.8-0.2,1-0.5c0.3-0.2,0.4-0.6,0.5-0.9c0.2-0.6,0.4-1.2,0.6-1.9
	c0-0.1,0.1-0.2,0-0.3c-0.1-0.1-0.2-0.1-0.3-0.1c-0.4,0-0.9,0.1-1.3,0.2c-1.6,0.5-3.3,1-4.9,1.5c-0.1,0.1-0.3,0.1-0.3,0.1
	s-0.1,0.2-0.2,0.3c-0.8,3-1.7,6-2.6,8.9c1.9,0.5,4,0.6,6,0.4c0.1,0,0.3,0,0.4-0.1s0.2-0.3,0.3-0.4c0.6-1.5,0.9-3.1,1.3-4.6
	c0.6-2.3,1.5-4.4,2.4-6.6c1.5,1.2,2.8,2.4,3.9,4c0.3,0.4,0.5,0.9,0.5,1.4c0,0.6-0.2,1-0.4,1.5c-0.6,1.4-1.2,2.8-1.7,4.3
	c-0.4,1.2-0.8,2.6-1.5,3.7l-1.3-0.4c-0.3-0.1-0.5-0.5-0.6-0.8c-0.2-0.3-0.3-0.7-0.4-1c0.1,0.2,0.4,0.5,0.6,0.6
	c0.2,0.2,0.5,0.3,0.8,0.6s0.6,0.4,0.9,0.6c0.3,0.1,0.6,0.3,0.8,0.5c0.1,0.1,0.1,0.1,0.1,0.2v0.1v0.1c-0.2,1-0.8,2.1-1.1,3.1
	c-0.5,1.2-1,2.5-1.5,3.7c-0.4,1.1-0.9,2.3-1.3,3.4c-0.2,0.5-0.3,1-0.6,1.5l10.7,3.7l-0.1-0.5l0.6-0.4c0,0-0.2,0.2-0.1-0.2
	c0.2-1.2,0.8-2.5,1.2-3.7c0.2-0.6,0.4-1.2,0.6-1.9c0.1-0.5,0.3-1.2,0.1-1.7c-1.4-0.1-2.8-0.6-4-1.2c-0.8,2.2-1.5,4.5-1.6,6.9
	c0,0.1,0,0.3,0.1,0.4c0.1,0.1,0.2,0.1,0.3,0.1c0.5,0.1,1,0.1,1.5,0.1c0.5-1.9,1.7-3.5,2.2-5.5c0.1,0.6,0.1,1.2-0.1,1.8
	c-0.2,1.5-0.6,3.1-0.9,4.6c0.8,0.1,2.4,1.2,3.1,1.8c-0.3-0.3-1.5-1-1.8-1.4c-0.3-0.4-0.3-0.8-0.1-1.3c0.4-1.2,0.9-2.4,1.9-3.3
	c3.8,1.7,7.7,3.5,11.5,5.3c0.2-0.6,0.3-1.3,0.6-1.9c0.1-0.1,0.1-0.3,0.1-0.6c0-0.2-0.1-0.3-0.3-0.6c-0.6-0.7-1.5-1.1-2.3-1.5
	c-1.7-0.8-3.3-1.7-4.8-2.8c-0.3-0.1-0.5-0.3-0.8-0.4c-0.3-0.1-0.6-0.1-0.8-0.1c-0.8-0.1-1.7-0.1-2.5-0.3c-0.1,0-0.3,0-0.3,0.1
	c-0.1,0.2,0.2,0.3,0.4,0.3c1.2,0.1,2.7,0.3,4,0.1l2.8-7.1l-0.3-0.6c-1-0.5-2.4-0.8-3.3-0.6c0.1,0.4-0.1,2.4-1.1,2.9
	c1.5,0.1-0.1,0.4-0.1,0.6c0.3,0.9,2.3,0.8,2.3,0c0-0.3,1.6,0.4,1.9,0.6c1.2,0.5,1.3,1.3,2.8,2.1c1,0.5,1.7,1.3,2.2,1.5
	c0.8,0.4,1.5,1.7,2.2,1.7c1-0.4,1.4-2.4,0.7-3.3c-0.8-0.8-1.7-1.5-2.6-2.1c-0.8-0.5-2.1-1-2.5-1.9c0.3-0.1,0.7,0.2,1.1,0.2
	c0.2,0,0.8-2,0.8-2.2c0.3-0.8,0.6-1.5,0.8-2.2c-0.8-0.8-1.7-1.4-2.5-2.1c-1.1-1-1.8-2.1-2.6-3.3l-1.2-0.2c-1.1,3-2.2,6-3.3,9
	c-0.7,1.9-1.6,3.7-1.4,5.9c0.1,1,0.1,1.9-0.1,2.8c-0.3,1-0.6,1.9-0.8,3c0.1,0.8,0.1,2.1,0.6,2.8c0.3,0.3,0.5,1.2,0.9,1.5
	c0,0,1.3-3.3,1.5-3.6c0-0.1,0.1-0.1,0.1-0.2c0.1-0.1,0.2-0.1,0.3-0.2h0.1c0,0,0.1,0,0.1,0.1c0.1,0.2,0.1,0.6,0,0.8
	c-0.3,1.2-0.5,2.4-0.7,3.5c-0.1,0-0.2,0.1-0.3,0.1c0.2-0.3,1.2,0.1,1.5,0.2c0.4,0.2,0.8,0.3,1.2,0.4c0,0,0.4,0.1,0.5-0.1
	c0-0.1,0.2-0.2,0.3-0.3s0.1-0.3,0.2-0.5c0.1-0.4,0.1-0.8,0.3-1.2c0.1-0.2,0.1-0.4,0.3-0.6c0.1,1.1-0.4,2-0.4,3.1
	c0.2,0.3,1.5,1,1.7,0.6c0.6-1,1-1.9,1.6-2.8c-0.2,0.8-0.5,1.6-0.7,2.4c-0.1,0.1-0.1,0.3-0.1,0.3c0,0.4,0.3,0.7,0.7,0.9
	c0.3,0.1,0.6,0.3,0.8,0.1c0.1-0.1,0.1-0.3,0.2-0.5c0.1-0.9,0.4-1.7,0.8-2.5c0.5-1.2,1-2.6,1.5-3.8c0.1-0.4,0.3-0.8,0.5-1.2
	c0.1-0.3,0.3-0.6,0.6-0.7s0.7,0,0.8,0.3c-0.7,1.9-1.3,3.9-1.9,5.8c-0.1,0.4-0.2,0.8-0.3,1.2c-0.1,0.4,0,0.9-0.1,1.4
	c0,0.1,0,0.2-0.1,0.3c-0.1,0.1-0.1,0.1-0.2,0.1c-0.3,0.2-0.8,0.3-1.2,0.3c-0.4-0.1-0.8-0.3-1.2-0.5c-0.8-0.4-1.5-0.8-2.3-1.2
	c-0.1-0.1-0.3-0.2-0.4-0.3s-0.1-0.4,0.1-0.5s0.3-0.1,0.4,0c1.2,0.3,2.4,1,3.5,1.5c1,0.5,2,1,3.1,1c0.8,0.5,1.2-1.7,1.3-1.7
	c0-0.4-0.6-0.7-0.8-0.9c-0.3-0.3-0.6-0.6-0.8-1.1c0-0.1-0.1-0.1-0.1-0.2c0-0.1,0-0.1,0.1-0.1c0.2-0.3,0.5-0.7,0.8-0.9
	c0.4-0.3,1-0.5,0.8-1c-0.1-0.3-0.3-0.6-0.4-0.8c-0.1-0.1-0.1-0.2-0.1-0.3c0-0.2,0.1-0.4,0.2-0.6c0.3-0.3,0.7-0.5,1-0.7
	c0.3-0.2,0.7-0.6,0.8-1c0-0.2-0.1-0.3-0.1-0.6s0.1-0.4,0.2-0.5c0.1-0.1,0.2,0,0.3,0c0.6,0.1,1.9,0.8,2.2-0.1c0.1-0.2,0-0.4-0.1-0.6
	c0.6-0.1,1.1-0.1,1.6,0c1.2,0.4,1.9,1.9,1.2,3.1c-0.1,0.1-0.2,0.3-0.4,0.4c-0.1,0-0.2,0-0.3,0.1c-0.1,0.1-0.1,0.3-0.1,0.5
	c0.1,0.5,0.2,1,0.3,1.5c0.3,0.8,0.6,1.7-0.3,2.3c-0.3,0.2-0.7,0.3-1.1,0.5c-0.5,0.2-1,0.6-1.3,0.9c-0.1,0.1-0.2,0.2-0.3,0.3
	c-0.1,0.1-0.3,0.1-0.3,0.1c-0.4,0-0.8-0.1-1.2-0.1c-0.1-0.1-0.3-0.1-0.5,0.1c0.1-0.8,1-1.2,1.2-1.9c-0.6-0.1-1.2,0.1-1.7,0.4
	c0.4-0.8,0.6-1.6,0.8-2.4c-0.2-0.1-0.4-0.1-0.6,0.1c-0.1,0.1-0.3,0.3-0.3,0.5c-0.3,0.6-0.7,1.3-1,1.9c0,0.1-0.1,0.1-0.1,0.2
	c0,0.2,0.1,0.3,0.3,0.5c0.2,0.1,1.3,1,1.1,1.2c-0.1,0.5,0,1,0,1.5c-0.5,0.1-1,0.3-1.4,0.6c4,1.2,7.9,2.6,11.8,4.1
	c0.5,0.2,1,0.3,1.5,0.6"/>
</svg>
