<?xml version="1.0" encoding="utf-8"?>
<!-- Generator: Adobe Illustrator 27.6.1, SVG Export Plug-In . SVG Version: 6.00 Build 0)  -->
<svg version="1.1" id="_xF91C_迹_x5F_1" xmlns="http://www.w3.org/2000/svg" xmlns:xlink="http://www.w3.org/1999/xlink" x="0px"
	 y="0px" viewBox="0 0 500 500" style="enable-background:new 0 0 500 500;" xml:space="preserve">
<style type="text/css">
	.st0{fill:#FFFFFF;}
	.st1{fill:none;stroke:#000000;stroke-miterlimit:10;}
</style>
<rect x="0" y="0" class="st0" width="500" height="500"/>
<path d="M13.43,400.78l-0.53-11.52l66.96-47.56c0.16-0.11,0.24-0.3,0.2-0.49c-0.03-0.19-0.17-0.34-0.36-0.4
	c-0.23-0.06-22.72-6.52-28.36-12.03c-3.36-3.29-5.6-9.22-6.87-13.48c1.84,3.59,4.68,8.35,7.91,11.18
	c5.05,4.42,26.52,12.92,31.06,14.69c-20.63,16.56-38.5,30.85-56.98,40.22c-0.23,0.11-0.33,0.38-0.24,0.62
	c0.13,0.35,0.43,0.58,0.91,0.7c2.99,0.71,13.99-2.92,17.96-6.36c-1.3,2.57-14.99,13.77-19.2,15.76c-0.5,0.18-0.78,0.29-0.81,0.3
	c-0.25,0.09-0.39,0.35-0.31,0.61c0.07,0.25,0.33,0.4,0.59,0.35c0.18-0.04,0.4-0.12,0.67-0.24c3.5-1.29,20.46-7.75,23.26-13.41
	c2.79-5.64,34.59-33.64,37.79-36.45l44.42,23.25c2.66,4.85,8.68,17.69,5.7,20.96c-1.98,2.17-4.58,4.41-6.88,6.39
	c-2.95,2.54-4.5,3.9-4.68,4.74c-0.03,0.15,0.01,0.3,0.1,0.42c0.09,0.12,0.24,0.18,0.39,0.18l5.14,0c0.13,0,0.25-0.05,0.34-0.13
	c0.33-0.3,8.08-7.5,9.3-13.79c1.03-5.28-3.41-14.39-5.05-17.5l54.39,15.88c0.16,1.65,0.87,8.04,1.11,10.16
	c0.03,0.25,0.24,0.44,0.49,0.44h0.01c0.25,0,0.46-0.18,0.49-0.43l1.38-9.31c6.72-1.27,16.84-2.9,18.72-2.46
	c-0.74,1.63-10.87,8.03-20.55,13.47c-0.12,0.07-0.21,0.19-0.24,0.33c-0.03,0.14,0,0.29,0.09,0.4c1.92,2.6,4.11,4.01,9.08,2.96
	c0.07-0.01,0.13-0.04,0.19-0.08c13.83-9.94,21.1-18.39,22.22-25.85c0.04-0.25-0.12-0.49-0.37-0.56c-0.25-0.07-0.5,0.07-0.59,0.31
	c-0.43,1.15-1.92,4.07-3.49,3.95c-1.1-0.1-3.71-4.39-5.98-9.09l6.18,5.55c0.19,0.17,0.47,0.17,0.66,0.01l16.27-14.05
	c23.31-17.92,39.21-31.74,54.77-47.59l34.55,27.31c0.21,0.16,0.51,0.14,0.69-0.06l21.72-24.84c0.09-0.1,0.13-0.24,0.12-0.38
	c-0.01-0.14-0.08-0.26-0.19-0.35l-32.39-24.84c-0.2-0.15-0.48-0.13-0.66,0.04l-20.29,19.96c-0.12,0.12-0.17,0.28-0.14,0.44
	c0.03,0.16,0.13,0.3,0.28,0.37l2.95,1.38c0.19,0.09,0.42,0.05,0.57-0.1l16.36-16.34l26.17,20.66l-16.84,19.06l-30.64-24.71
	c2.44-2.53,4.91-5.15,7.34-7.79c1.2-1.3,2.25-2.5,3.23-3.63c3.01-3.45,5.4-6.18,9.83-9.27c7.71-5.38,9.46-13.61,10.62-19.06
	c0.41-1.92,0.76-3.58,1.26-4.58c2-3.99,5.14-10.21,5.15-10.23l1.48-3.22c0.13,0.74,0.38,1.5,0.84,1.96c0.31,0.3,0.69,0.44,1.1,0.44
	c0.65-0.02,1.22-0.36,1.63-0.98c0.75-1.12,0.92-3.06,0.39-4.52c-0.76-2.1-3.34-3.81-6.14-4.05c-1.75-0.16-3.67,1.71-5.37,3.36
	c-0.81,0.78-2,1.94-2.49,2.02c-0.13-1.13,2.91-6.51,4.94-7.78c1.71-1.07,3.08-0.73,4.96-0.26c0.44,0.11,0.9,0.22,1.39,0.33
	c0.94,0.2,1.78-0.34,2.08-1.34c0.47-1.58-0.47-3.74-3.21-4.81c-1.59-0.62-6.42-2.51-9.68-1.14c-1.85,0.78-5.04,3.81-7.41,6.25
	c1.97-3.15,4.58-6.79,6.37-7.54c2.7-1.13,7.58-1.82,9.07-1.76c1.97,0.08,3.23-1.16,3.42-2.38c0.17-1.07-0.41-2.43-2.55-3.01
	c-2.82-0.77-5.26-1-8.74,0.29c-0.97,0.36-1.92,0.65-2.84,0.93c-2.22,0.68-4.31,1.33-6.69,2.84c-1.56,0.99-3.24,2.54-4.6,3.92
	c0.8-1.27,1.77-2.6,2.79-3.47c2.53-2.16,18.54-8.75,18.7-8.81c0.03-0.01,0.07-0.03,0.1-0.05l6.72-4.69c0.2-0.14,0.27-0.4,0.17-0.62
	c-0.1-0.22-0.34-0.34-0.57-0.28l-9.06,2.23c-0.52,0.2-12.79,5.02-16.86,8.5c-1.94,1.66-3.8,4.19-5.23,6.43
	c0.88-2.05,2.07-4.26,3.49-5.7c3.16-3.2,8.02-5.42,10.09-6.37l0.33-0.15c1.41-0.65,2.4-1.75,2.59-2.88c0.1-0.59,0.04-1.48-0.85-2.34
	c-0.94-0.9-2.5-1.22-4.66-0.94c-6.44,0.84-16.69,6.86-18.77,10.31c-2.12,3.52-4.8,8.33-5.85,10.24l-0.52-1.01
	c-0.12-0.24-0.42-0.34-0.66-0.22l-27.95,13.22c-0.16,0.07-0.26,0.22-0.28,0.39c-0.02,0.17,0.05,0.34,0.18,0.45l2.14,1.75
	c0.15,0.12,0.34,0.15,0.51,0.07l24.76-10.66c-1.09,3.58-1.21,8.98-1.33,14.67c-0.19,8.63-0.4,18.41-4.2,23.02
	c-0.93,1.13-6.95,6.49-14.38,12.81l-0.3-0.26l14.03-12.67c1.91-2.53,2.43-4.96,2.88-7.11c0.18-0.83,0.34-1.62,0.58-2.35
	c0.07-0.23-0.02-0.47-0.23-0.59l-7.96-4.49c-0.06-0.03-0.13-0.05-0.19-0.06c-0.61-0.06-14.96-1.48-20.4,3.63
	c-5.45,5.11-4.95,12.42-4.92,12.73c0.01,0.13,0.07,0.25,0.17,0.34L267.71,292c-2.99,2.52-5.99,5.02-8.7,7.26
	c-10.4,8.55-42.14,21.59-42.45,21.73c-0.19,0.08-0.31,0.25-0.31,0.46c-0.26,16.53-3.15,27.09-9.09,43.11l-5.94,11.87
	c-2.84-1.16-19.13-8-22.61-14.37c-3.69-6.74-6.38-28.13,0.43-37.38c-3.79,10.28-2.01,28.23,2.72,35.15
	c5.11,7.46,17.12,13.18,17.63,13.42c0.25,0.12,0.55,0.01,0.66-0.24c8.65-18.09,15.72-34.38,14.62-50.48
	c-0.01-0.14-0.08-0.26-0.18-0.35c-0.11-0.09-0.25-0.13-0.38-0.11l-4.31,0.56l12.82-23.56c0.13-0.24,0.05-0.53-0.18-0.67
	c-0.23-0.14-0.53-0.07-0.67,0.16l-15.9,24.36c-6.62,1.42-16.91,3.27-18.67,2.63c-2.33-0.84-4.27-4.81-4.29-4.85
	c-0.05-0.11-0.14-0.19-0.25-0.24l-7.43-3.31c-0.11-0.05-0.23-0.06-0.34-0.02c-0.12,0.03-11.6,3.29-18.63,6.09
	c-4.62,1.85-18.49,9.4-27.79,14.55c8.85-6.05,22.27-14.87,27.26-16.36c3.17-0.95,17.83-4.37,17.98-4.41
	c0.23-0.05,0.39-0.26,0.39-0.49c0-0.23-0.17-0.44-0.4-0.48l-12.99-2.73c-1.21-1.32-10.97-11.78-19.87-13.83
	c-6.93-1.6-19.41,1.6-27.67,3.72c-2.92,0.75-5.23,1.34-6.52,1.52c-3.25,0.45-29.42-6.63-41.57-16.33c0.13-1.43,0.89-8.45,3.72-11.83
	c2.66-3.17,18.91-18.87,31.84-16.94c7.39,1.11,12.55,5.67,17.11,9.69c1.41,1.25,2.75,2.43,4.1,3.46c3.98,3.06,8.95,8.04,11.57,10.75
	c-7.74-2.97-16.76-0.98-20.55,1.88c-1.62,1.22-2.35,2.62-2.06,3.93c0.03,0.15,0.14,0.28,0.28,0.35c0.14,0.06,0.31,0.06,0.45-0.02
	c7.23-4,12.59-5.53,21.81-2.75l10.12,8.15c0.38,0.79,2.7,5.35,5.78,5.7c4.23,0.49,21.86,7.23,23.09,9.14
	c-0.09,0.13-0.12,0.3-0.07,0.45l1.86,5.66c0.08,0.23,0.31,0.38,0.55,0.34c0.24-0.04,0.42-0.25,0.42-0.49c0-0.81,0.37-3.81,1.53-4.22
	c1.3-0.47,2.91-1.05,4.76-1.71c14.09-5.08,43.37-15.64,48.74-15.64h0.06l3.1,0.04c6.08,0.07,12.38,0.14,15.99,0.65
	c4.21,0.58,11.28,1.99,11.35,2c0.16,0.03,0.32-0.01,0.44-0.12l5.04-4.65c0.12-0.11,0.18-0.28,0.16-0.45
	c-0.03-0.17-0.13-0.31-0.29-0.38c-3.26-1.5-6.45-2.12-9.01-2.61c-2.92-0.56-4.57-0.92-4.56-1.88c0.02-1.82-0.25-3.46-0.51-5.04
	c-0.46-2.75-0.85-5.13,0.33-7.88c2.8-6.5,5.62-10.49,8.64-12.18c3.98-2.23,10.58-1.79,13.09-0.41c1.95,1.08,3.38,0.48,4.54-0.01
	c0.76-0.32,1.43-0.59,2.12-0.37c2.58,0.83,4.6,0.11,5.19-0.98c0.36-0.67,0.17-1.43-0.52-1.99c-4.24-3.45-6.74-4.49-15.08-4.76h-0.02
	c-0.24,0-0.45,0.17-0.49,0.41c-0.04,0.25,0.1,0.48,0.33,0.56l1.39,0.46c3.87,1.26,6.01,1.96,6.72,3.39
	c-4.67-2.81-8.69-4.3-14.01-5.23c-4.89-0.86-6.12,0.26-7.66,1.68c-0.46,0.42-0.94,0.86-1.57,1.3c-1.54,1.08-3.75,1.87-5.13,2.31
	l85.94-129.13l141.4,0.91L327.76,399.1c-0.09,0.15-0.08,0.34,0.01,0.5c0.09,0.15,0.25,0.25,0.43,0.25h11.81
	c0.18,0,0.35-0.1,0.44-0.26l152.99-277.34c0.09-0.16,0.08-0.35-0.01-0.5c-0.09-0.15-0.25-0.2-0.43-0.24l-163.09,1.29
	c-0.17,0-0.32,0.09-0.41,0.23l-97.74,148.62c-0.15,0.22-0.09,0.52,0.12,0.68c0.22,0.16,0.52,0.11,0.68-0.09
	c3.19-4.02,6.22-6.33,9.7-8.53c-0.58,0.56-1.2,1.17-1.85,1.82c-5.74,5.63-14.42,14.15-18.33,14.88c-3.86,0.72-50.89,2.46-51.37,2.48
	c-0.16,0.01-0.31,0.09-0.39,0.22c-1.39,2.04-2.27,7.3-2.82,12.63c-0.01-4.7,0.29-9.22,1.42-12.75c0.05-0.15,0.02-0.32-0.07-0.45
	c-0.92-1.26-2.39-1.75-3.93-2.28c-1.56-0.53-3.17-1.07-4.38-2.45c-0.12-0.14-0.31-0.2-0.49-0.16c-0.18,0.04-0.32,0.18-0.37,0.36
	c-0.47,1.74-0.88,3.87-1.24,6.09c0.15-3.93,0.27-7.06,0.27-7.06c0.01-0.28-0.2-0.51-0.48-0.52c-4.35-0.17-9.89-4.1-16.3-8.65
	l-2.05-1.45c-0.19-0.14-0.46-0.12-0.63,0.04c-0.17,0.16-0.21,0.42-0.08,0.63c2.74,4.43,3.19,9.46,2.9,15.31
	c-0.46-3.31-1.24-7.51-2.44-10.64c-1.52-3.95-4.88-9.06-7.02-12.12c2.44,2.35,5.12,5.92,5.15,5.97c0.11,0.15,0.3,0.23,0.49,0.19
	c0.19-0.03,0.34-0.17,0.39-0.35l2.59-8.77c0.01-0.06,0.82-5.85,1.43-9.51c0.21-1.28,0.65-2.41,1.06-3.49c0.77-2,1.5-3.89,0.63-6.28
	c-1.3-3.55-8.71-9.36-9.02-9.61c-0.13-0.1-0.29-0.13-0.45-0.09c-0.15,0.05-0.28,0.16-0.33,0.31c-1.02,2.89-1.6,4.08-3.53,4.5
	c0.31-0.64,0.62-1.3,0.93-1.96c3.97-8.37,8.47-17.86,12.84-19.72c0.2-0.09,0.32-0.29,0.3-0.51c-0.02-0.22-0.19-0.4-0.4-0.44
	c-3.24-0.64-5.28-1.63-6.8-2.9c5.76,2.28,18.8,6.05,22.12,5.12c3.4-0.96,8.11-2.57,9.73-5.48c1.31-2.35-0.31-6.21-0.92-7.5
	c1.24-0.74,4.64-2.84,5.23-4.13c0.55-1.21,0.12-2.99-0.13-3.82c0.82-0.44,2.56-1.5,3.01-2.86c0.27-0.83-0.22-1.83-0.79-2.98
	c-0.7-1.42-1.49-3.02-0.94-4.45c0.29-0.74,1.03-0.8,2.33-0.84c2-0.06,4.75-0.15,5.42-4.79c0.32-2.22-2.56-6.27-5.34-10.18
	c-1.62-2.27-3.63-5.1-3.52-5.82c0.13-0.82,0.86-1.18,1.7-1.6c0.92-0.46,1.96-0.98,2.29-2.21c0.56-2.11-5.39-18.78-6.59-22.1
	c-0.04-0.1-0.1-0.18-0.19-0.24c-3.49-2.38-7.1-4.85-14.06-4.59c-6.42,0.24-8.66,4.79-10.64,8.8c-0.2,0.41-0.4,0.82-0.61,1.22
	c-0.93,1.82-1.64,6.36-2.46,11.61c-1.05,6.72-2.37,15.09-4.27,16.65c-2.89,2.37-5.06,1.72-8.06,0.81c-0.39-0.12-0.79-0.24-1.21-0.36
	c-1.33-0.38-3.71-2.64-6.24-5.03c-4.14-3.92-8.84-8.38-12.01-7.68c-4.19,0.92-6.35,4.7-6.39,11.25c-0.04,5.06,4.48,11.6,7.61,14.19
	l0.78,0.65c3.17,2.64,6.45,5.38,8.88,3.26c2.54-2.21-0.2-8.38-0.31-8.64c-0.11-0.25-0.41-0.37-0.66-0.25
	c-0.05,0.02-4.99,2.19-7.24,0.73c-1.83-1.19-2.59-6.66-2.76-8.93l4.87-5.64c0.13-0.15,0.16-0.36,0.08-0.53
	c-0.08-0.18-0.26-0.3-0.47-0.29c-3.86,0-5.67,0.39-6.68,1.45c-0.61,0.64-0.87,1.47-0.95,2.6c-0.31-0.83-0.42-1.71-0.05-2.49
	c0.61-1.29,2.4-2.1,5.17-2.34c4.47-0.38,5.78,3.97,7.6,10c0.56,1.87,1.15,3.8,1.89,5.82c0.69,1.89,2.81,7.66,0.65,9.49
	c-1.3,1.1-4.82,1.3-14.23-4.02c-0.16-0.09-0.36-0.09-0.51,0.01c-0.16,0.1-0.25,0.27-0.23,0.46c0,0.07,0.48,7.45-2.66,9.77
	c-2.53,1.87-10.99,0.71-14.59,0l0.17-1.46c2.19,0.51,10.07,2.12,13.29-0.21c3.71-2.69,3.37-10.58,3.35-10.92
	c-0.01-0.1-0.04-0.2-0.11-0.29c-0.05-0.06-5.03-6.41-4.89-10.44c0.06-1.9,0.72-11.46,7.51-13.62c4.03-1.28,11.46,4.5,16.37,8.33
	c2.63,2.04,4.03,3.12,4.81,3.28l0.81,0.17c2.46,0.53,5.26,1.13,5.77-0.51c0.53-1.71,0.8-4.59,1.11-7.92
	c0.63-6.77,1.49-16.04,5.25-21.05c5.1-6.8,5.3-6.85,7.69-7.49c0.46-0.12,0.99-0.27,1.64-0.47c3.93-1.25,11.71-0.34,16.57,2.97
	c0.89,0.61,1.86,0.62,2.72,0.03c2.07-1.42,3.35-6.33,2.77-8.83c-0.77-3.27-26-24.08-47.06-24.4c-20.71-0.3-40.4,11.68-48.43,23.12
	c-8.04,11.46-7.63,20.72-4.07,33.81c3.67,13.51,9.94,35.39,10,35.61c0.02,0.08,0.06,0.15,0.12,0.21l3.11,3.27
	c6.95,11.48,20.94,26.13,37.44,39.2c1.9,3.86,8.62,7.35,10.02,7.62c0.67,0.13,1.75,2.26,2.44,4.28c-2.07,1.79-3.7,3.41-5.14,4.84
	c-0.66,0.66-1.28,1.27-1.87,1.83c0.72-0.88,1.43-1.84,2.2-2.86c0.98-1.31,2.09-2.79,3.42-4.4c0.12-0.15,0.15-0.36,0.07-0.53
	c-0.08-0.17-0.26-0.29-0.45-0.29h-0.02c-3.09,0-17.52-13.09-42.91-38.89c-1.27-1.29-2.21-2.25-2.74-2.77
	c-2.11-2.1-3.58-6.78-3.59-6.83c-0.05-0.17-0.19-0.3-0.37-0.34c-0.17-0.04-0.36,0.02-0.48,0.15l-9.57,10.21
	c-0.18,0.19-0.18,0.49,0,0.68l25.03,27.35c0.18,0.17,17.81,17.19,21.35,23.35c1.82,3.18,3.19,7.73,4.09,11.39
	c-1.66-4.04-4.08-9.32-6.68-13.03c-4.74-6.75-18.63-19.68-19.22-20.23c-0.06-0.06-0.13-0.1-0.21-0.12
	c-1.04-0.27-2.05-0.53-3.03-0.79c-8.08-2.09-14.18-3.66-20.79-8.05l16.98,5.39c0.22,0.07,0.45-0.02,0.57-0.21
	c0.12-0.19,0.1-0.44-0.05-0.61l-9.11-10.17l-10-13.8c-0.15-0.21-0.45-0.27-0.67-0.13c-0.22,0.14-21.62,13.92-31.14,26.34
	c-9.34,12.19-28.88,44.01-35.96,77.2c-6.58,30.86-1.01,84.68-0.35,90.75H0v1h9.83c0.14,0,0.28-0.06,0.37-0.17
	c0.1-0.11,0.14-0.25,0.12-0.39c-0.07-0.58-6.64-58.57,0.27-90.98c7.04-33.01,26.48-64.67,35.77-76.8
	c8.7-11.35,27.52-23.9,30.48-25.84l9.76,13.45l7.92,8.85l-18.26-5.79c-0.23-0.08-0.48,0.03-0.6,0.25c-0.11,0.22-0.05,0.48,0.14,0.63
	c7.82,5.95,14.84,7.77,23.73,10.06c0.94,0.24,1.91,0.49,2.91,0.75c1.24,1.15,14.51,13.6,18.99,19.98c4.66,6.65,8.75,18.52,8.8,18.64
	c0.08,0.25,0.34,0.38,0.59,0.32c0.25-0.06,0.41-0.31,0.37-0.56c-0.07-0.47-1.88-11.53-5.49-17.83c-3.6-6.28-20.79-22.87-21.5-23.55
	l-24.69-26.98l8.69-9.26c0.53,1.5,1.82,4.7,3.57,6.44c0.53,0.52,1.47,1.48,2.73,2.77c15.66,15.92,36.66,36.79,42.73,39
	c-1.13,1.39-2.08,2.67-2.94,3.82c-2.18,2.91-3.89,5.21-6.72,7.05c-0.21,0.14-0.29,0.41-0.18,0.64c0.11,0.23,0.38,0.34,0.61,0.25
	c2.8-0.96,4.76-2.91,7.46-5.61c1.49-1.48,3.17-3.16,5.34-5.01c0.15-0.13,0.21-0.34,0.15-0.53c-0.37-1.16-1.71-4.96-3.3-5.27
	c-1.38-0.27-7.77-3.78-9.36-7.17c-0.03-0.07-0.08-0.13-0.14-0.18c-16.47-13.04-30.43-27.65-37.32-39.06
	c-0.02-0.03-0.04-0.06-0.06-0.09l-3.06-3.22c-0.5-1.76-6.43-22.49-9.97-35.48c-3.56-13.09-3.93-21.78,3.93-32.98
	c7.88-11.23,27.21-23.02,47.6-22.69c20.85,0.32,45.55,21.24,46.1,23.62c0.5,2.15-0.66,6.61-2.36,7.78
	c-0.53,0.36-1.03,0.35-1.59-0.03c-5.1-3.48-13.29-4.42-17.44-3.1c-0.63,0.2-1.15,0.34-1.59,0.46c-2.71,0.73-3.04,0.95-8.23,7.86
	c-3.93,5.23-4.8,14.67-5.44,21.56c-0.3,3.28-0.57,6.11-1.07,7.71c-0.24,0.77-3.08,0.16-4.6-0.17l-0.82-0.17
	c-0.59-0.12-2.44-1.56-4.4-3.09c-5.08-3.95-12.76-9.93-17.29-8.49c-7.43,2.36-8.14,12.52-8.21,14.54c-0.14,4.1,4.25,9.98,5.01,10.96
	c0.03,1.1,0.07,7.72-2.94,9.9c-3.3,2.39-12.92-0.05-13.01-0.08c-0.14-0.04-0.29-0.01-0.41,0.07c-0.12,0.08-0.2,0.21-0.21,0.35
	l-0.29,2.48c-0.03,0.26,0.14,0.49,0.39,0.55c0.5,0.11,12.3,2.53,15.83-0.09c2.89-2.14,3.12-7.57,3.09-9.74
	c7.61,4.21,12.39,5.35,14.59,3.48c2.41-2.04,0.95-7.02-0.36-10.59c-0.73-1.99-1.31-3.91-1.87-5.76c-1.88-6.24-3.38-11.16-8.65-10.71
	c-3.15,0.27-5.22,1.28-5.99,2.91c-0.67,1.43-0.31,3.22,1.05,5.18c0.13,0.18,0.36,0.26,0.57,0.19c0.21-0.07,0.35-0.27,0.34-0.5
	c-0.09-1.91-0.01-3.15,0.67-3.86c0.69-0.72,2.13-1.06,4.87-1.12l-4.28,4.96c-0.09,0.1-0.13,0.23-0.12,0.36
	c0.05,0.83,0.58,8.19,3.23,9.91c2.27,1.47,6.34,0.09,7.72-0.46c0.75,1.86,1.89,5.71,0.38,7.03c-1.79,1.56-4.73-0.9-7.58-3.28
	l-0.79-0.65c-2.98-2.46-7.28-8.65-7.25-13.41c0.05-6.1,1.88-9.46,5.61-10.28c2.66-0.57,7.34,3.86,11.11,7.42
	c2.73,2.59,5.09,4.82,6.65,5.26c0.41,0.12,0.8,0.24,1.19,0.35c3.05,0.92,5.68,1.71,8.98-1c2.2-1.8,3.43-9.67,4.62-17.27
	c0.78-4.96,1.51-9.64,2.37-11.32c0.2-0.4,0.41-0.81,0.61-1.23c1.94-3.95,3.95-8.03,9.78-8.24c6.54-0.23,10.01,2.06,13.33,4.32
	c2.73,7.59,6.87,19.97,6.51,21.35c-0.21,0.79-0.93,1.15-1.77,1.57c-0.96,0.48-2.04,1.01-2.24,2.35c-0.16,1.07,1.23,3.08,3.69,6.55
	c2.42,3.4,5.43,7.63,5.16,9.46c-0.55,3.81-2.45,3.87-4.46,3.93c-1.32,0.04-2.69,0.09-3.23,1.48c-0.71,1.83,0.22,3.73,0.97,5.25
	c0.43,0.88,0.88,1.79,0.73,2.23c-0.35,1.08-2.2,2.14-2.88,2.46c-0.24,0.11-0.35,0.38-0.26,0.63c0.24,0.64,0.75,2.5,0.3,3.48
	c-0.41,0.9-3.42,2.88-5.22,3.91c-0.23,0.13-0.32,0.43-0.19,0.67c0.68,1.28,2.22,5.04,1.15,6.97c-1.08,1.94-4.06,3.58-9.13,5.01
	c-3.9,1.1-21.66-4.79-23.64-6.02c-0.04-0.05-0.08-0.1-0.12-0.16c-0.09-0.11-0.22-0.18-0.36-0.19c-0.14-0.01-0.28,0.04-0.38,0.14
	c-0.16,0.16-0.2,0.48-0.08,0.67c0.03,0.06,0.1,0.12,0.2,0.19c1.97,2.47,4.32,3.91,7.85,4.8c-4.3,2.96-8.46,11.73-12.17,19.55
	c-0.45,0.95-0.9,1.89-1.33,2.8c-0.08,0.16-0.06,0.35,0.04,0.5c0.1,0.15,0.28,0.23,0.46,0.21c3.14-0.29,4.02-1.8,5.05-4.64
	c1.74,1.42,7.14,5.96,8.15,8.73c0.75,2.04,0.11,3.68-0.62,5.58c-0.44,1.13-0.89,2.3-1.12,3.69c-0.61,3.67-1.42,9.46-1.42,9.46
	l-2.29,7.75c-1.46-1.87-5.2-6.46-7.47-7.38c-0.21-0.09-0.45-0.02-0.58,0.16c-0.14,0.18-0.14,0.43,0,0.61
	c0.07,0.09,6.58,8.73,8.79,14.5c2.21,5.77,2.96,15.63,2.97,15.73c0.02,0.26,0.23,0.46,0.49,0.46c0.25,0.02,0.48-0.2,0.5-0.45
	c0.69-7.51,1-13.83-1.61-19.38l0.3,0.21c6.31,4.48,11.79,8.37,16.34,8.8c-0.2,5.27-0.62,16.43-0.8,20.58
	c-0.06,0.82-0.08,1.39-0.08,1.59c0,0.27,0.22,0.55,0.49,0.56c0.26,0,0.39,0.01,0.47-0.55l0.04,0c0-0.09,0.01-0.25,0.02-0.48
	c0.02-0.27,0.04-0.62,0.06-1.05c0.25-3.74,1.1-13.1,2.54-19.02c1.28,1.12,2.8,1.63,4.17,2.1c1.36,0.46,2.54,0.86,3.29,1.73
	c-1.85,6.04-1.44,14.66-1.09,22.27c0.01,0.27,0.23,0.48,0.5,0.48c0,0,0,0,0,0c0.27,0,0.49-0.21,0.5-0.48
	c0.55-11.08,1.72-18.81,3.21-21.34c4.19-0.16,47.43-1.77,51.25-2.48c4.21-0.79,12.67-9.09,18.85-15.15
	c2.53-2.49,4.72-4.63,5.64-5.26c0.22-0.15,0.28-0.46,0.14-0.68c-0.15-0.23-0.45-0.3-0.68-0.16l-1.16,0.7
	c-3.4,2.04-6.32,3.8-9.18,6.39l94.32-143.42l161.97-1.28L339.71,398.84h-10.67L478.39,129.6c0.09-0.15,0.08-0.34-0.01-0.5
	c-0.09-0.15-0.25-0.25-0.43-0.25l-142.51-0.92c-0.12,0.02-0.33,0.08-0.42,0.22l-86.85,130.49c-0.11,0.17-0.11,0.4,0.01,0.57
	c0.12,0.17,0.33,0.25,0.53,0.2c0.17-0.04,4.21-1.05,6.76-2.83c0.68-0.48,1.21-0.96,1.67-1.38c1.45-1.33,2.41-2.2,6.82-1.44
	c5.57,0.97,9.68,2.58,14.68,5.73c0.16,0.1,0.36,0.1,0.52,0.01c0.16-0.09,0.26-0.27,0.25-0.45c-0.11-2.45-1.91-3.42-5.45-4.64
	c5.48,0.5,7.48,1.71,10.7,4.32c0.46,0.38,0.32,0.65,0.27,0.74c-0.35,0.64-1.93,1.18-4,0.51c-1.05-0.34-1.95,0.04-2.82,0.4
	c-1.1,0.46-2.14,0.89-3.67,0.05c-3.04-1.68-9.99-1.87-14.06,0.42c-4.29,2.4-7.23,8.38-9.07,12.66c-1.3,3.01-0.86,5.65-0.4,8.44
	c0.26,1.54,0.52,3.13,0.5,4.86c-0.02,1.84,2.24,2.27,5.37,2.88c2.32,0.45,5.18,1,8.09,2.23l-4.29,3.96
	c-1.3-0.25-7.38-1.44-11.16-1.96c-3.67-0.51-10-0.58-16.11-0.66l-3.1-0.04h-0.06c-5.56,0-33.86,10.21-49.08,15.7
	c-1.85,0.67-3.46,1.25-4.76,1.71c-1.07,0.38-1.62,1.71-1.9,2.92l-1.09-3.32c0.09-0.17,0.11-0.36,0.06-0.55
	c-0.67-2.62-20.61-9.59-23.99-9.98c-2.74-0.31-5.01-5.18-5.03-5.23c-0.03-0.07-0.08-0.13-0.14-0.18l-10.29-8.28
	c-0.05-0.04-0.11-0.07-0.17-0.09c-9.24-2.81-14.96-1.37-21.95,2.4c0.2-0.93,1.09-1.73,1.68-2.18c3.98-3,14.07-4.97,21.88-0.68
	c0.22,0.12,0.48,0.06,0.64-0.13c0.15-0.19,0.14-0.47-0.03-0.65c-0.08-0.08-7.78-8.37-13.49-12.75c-1.32-1.01-2.64-2.18-4.05-3.42
	c-4.66-4.11-9.93-8.77-17.62-9.92c-13.39-2.01-30.03,14.04-32.75,17.28c-3.36,4-3.95,12.31-3.98,12.67
	c-0.01,0.16,0.06,0.32,0.18,0.42c12.23,9.93,39.2,17.17,42.54,16.71c1.34-0.19,3.67-0.79,6.63-1.54c8.17-2.09,20.51-5.25,27.2-3.71
	c8.99,2.07,19.36,13.53,19.46,13.65c0.07,0.08,0.17,0.13,0.27,0.16l10.95,2.3c-4.25,1-13.36,3.17-15.84,3.91
	c-7.85,2.34-34.73,21.48-35.87,22.29c-0.22,0.15-0.27,0.45-0.13,0.68c0.14,0.22,0.43,0.3,0.67,0.17
	c0.29-0.17,29.55-16.65,36.52-19.43c6.5-2.59,16.89-5.59,18.35-6.01l7.1,3.17c0.42,0.82,2.32,4.31,4.77,5.19
	c2.62,0.94,17.71-2.27,19.42-2.64c0.13-0.03,0.24-0.1,0.31-0.21l9.18-14.06L208.44,323c-0.09,0.17-0.08,0.37,0.03,0.52
	c0.11,0.15,0.29,0.24,0.48,0.21l4.76-0.62c0.88,15.56-5.95,31.41-14.34,48.99c-2.25-1.12-12.37-6.42-16.79-12.86
	c-4.94-7.22-6.53-27.87-1.41-36.87c0.12-0.21,0.07-0.47-0.11-0.63c-0.18-0.16-0.45-0.16-0.64-0.01c-9.83,7.96-6.94,33.03-2.7,40.79
	c3.98,7.26,22.75,14.68,23.55,14.99c0.24,0.09,0.51-0.01,0.63-0.24l6.17-12.33c5.97-16.08,8.87-26.68,9.17-43.17
	c3.31-1.37,32.45-13.57,42.41-21.75c2.86-2.35,6.02-4.99,9.16-7.64c0.11-0.09,0.18-0.23,0.18-0.38c0-0.15-0.06-0.29-0.17-0.38
	l-14.62-12.74c-0.04-1.18,0.01-7.4,4.62-11.73c4.88-4.58,18.21-3.49,19.51-3.37l7.52,4.24c-0.19,0.66-0.33,1.34-0.49,2.06
	c-0.46,2.15-0.93,4.36-2.64,6.64l-14.38,12.97c-0.11,0.1-0.17,0.23-0.17,0.37c0,0.14,0.06,0.28,0.17,0.37l1.05,0.92
	c0.19,0.16,0.46,0.17,0.65,0c6.33-5.38,13.67-11.82,14.83-13.22c4.02-4.88,4.23-14.84,4.43-23.63c0.14-6.21,0.26-12.07,1.65-15.41
	c0.08-0.19,0.03-0.4-0.11-0.55c-0.15-0.14-0.36-0.19-0.55-0.1l-25.54,10.99l-1.29-1.06l26.8-12.68l0.73,1.41
	c0.08,0.16,0.25,0.27,0.44,0.27c0.19-0.01,0.36-0.1,0.44-0.26c0.04-0.07,3.6-6.59,6.28-11.02c1.94-3.21,11.95-9.04,18.04-9.84
	c1.82-0.24,3.14-0.01,3.84,0.66c0.46,0.44,0.65,0.93,0.56,1.45c-0.14,0.81-0.91,1.62-2.02,2.13l-0.33,0.15
	c-2.12,0.97-7.1,3.24-10.39,6.57c-3.46,3.51-5.47,10.95-5.56,11.26c-0.07,0.25,0.07,0.51,0.31,0.6c0.24,0.09,0.51-0.01,0.62-0.24
	c0.04-0.08,3.8-7.52,7.74-10.88c3.95-3.37,16.45-8.28,16.51-8.31l6.4-1.57l-4.48,3.13c-1.18,0.49-16.32,6.73-18.92,8.96
	c-2.67,2.28-4.92,7.21-5.02,7.42c-0.1,0.23-0.02,0.5,0.19,0.63c0.21,0.13,0.49,0.09,0.65-0.11c0.04-0.05,3.95-4.75,7.17-6.8
	c2.27-1.44,4.3-2.07,6.45-2.73c0.93-0.29,1.89-0.58,2.89-0.95c3.23-1.2,5.43-1,8.12-0.26c1.28,0.35,1.96,1.06,1.83,1.89
	c-0.13,0.81-1.03,1.61-2.39,1.54c-1.61-0.07-6.63,0.63-9.5,1.83c-3.52,1.47-8.88,11.4-9.11,11.82c-0.12,0.22-0.05,0.5,0.15,0.65
	c0.21,0.14,0.49,0.11,0.66-0.08c0.07-0.08,7.17-8.02,10.11-9.26c1.91-0.81,4.91-0.42,8.94,1.16c2.42,0.94,2.88,2.66,2.6,3.59
	c-0.07,0.24-0.31,0.78-0.92,0.65c-0.48-0.1-0.92-0.21-1.35-0.32c-1.97-0.49-3.66-0.91-5.73,0.38c-2.18,1.36-5.69,7.17-5.37,8.88
	c0.07,0.39,0.32,0.66,0.68,0.73c0.91,0.17,1.98-0.86,3.46-2.29c1.48-1.42,3.32-3.19,4.59-3.08c2.39,0.21,4.67,1.67,5.29,3.4
	c0.42,1.15,0.29,2.78-0.28,3.62c-0.23,0.34-0.51,0.52-0.84,0.54c-0.14,0-0.25-0.04-0.36-0.15c-0.55-0.55-0.72-2.25-0.69-3.2
	c0.01-0.24-0.16-0.45-0.39-0.5c-0.24-0.05-0.47,0.06-0.57,0.28l-2.28,4.95c0,0-3.14,6.22-5.15,10.21c-0.56,1.12-0.91,2.75-1.35,4.82
	c-1.12,5.3-2.82,13.3-10.21,18.45c-4.54,3.17-6.96,5.93-10.01,9.43c-0.98,1.12-2.02,2.31-3.21,3.61c-2.55,2.78-5.15,5.52-7.71,8.17
	c-0.1,0.1-0.15,0.24-0.14,0.38c0.01,0.14,0.08,0.27,0.19,0.36l31.44,25.35c0.21,0.17,0.51,0.14,0.69-0.06l17.51-19.81
	c0.09-0.1,0.14-0.24,0.12-0.38c-0.01-0.14-0.08-0.26-0.19-0.35l-26.94-21.26c-0.2-0.16-0.48-0.14-0.66,0.04l-16.42,16.4l-1.98-0.93
	l19.47-19.15l31.62,24.25l-21.06,24.08l-34.53-27.29c-0.2-0.16-0.49-0.14-0.67,0.04c-15.62,15.95-31.55,29.8-55,47.83l-15.96,13.78
	l-7.67-6.88c-0.18-0.16-0.44-0.17-0.63-0.03c-0.19,0.14-0.26,0.39-0.16,0.61c0.87,1.95,5.35,11.67,7.84,11.89
	c0.98,0.08,1.83-0.47,2.53-1.22c-2.57,6.28-9.39,13.36-20.7,21.49c-4.09,0.85-5.99-0.12-7.62-2.14c6.65-3.75,20.77-11.98,20.6-14.24
	c-0.03-0.33-0.24-0.6-0.59-0.72c-2.28-0.84-17.92,2.11-19.7,2.45c-0.21,0.04-0.37,0.21-0.4,0.42l-0.87,5.84
	c-0.36-3.24-0.7-6.38-0.71-6.6c0-0.22-0.15-0.42-0.36-0.48L135,366.5c-0.19-0.05-0.41,0.01-0.53,0.17
	c-0.13,0.16-0.14,0.38-0.04,0.56c0.07,0.12,6.67,11.93,5.51,17.88c-1.08,5.52-7.8,12.1-8.86,13.12l-4.05,0
	c0.76-0.85,2.42-2.28,3.94-3.59c2.32-1.99,4.95-4.25,6.97-6.47c4.1-4.5-5.24-21.52-5.64-22.25c-0.05-0.09-0.12-0.16-0.21-0.2
	l-44.86-23.48c-0.18-0.09-0.41-0.07-0.56,0.07c-1.44,1.26-35.27,30.89-38.29,36.98c-1.9,3.85-11.39,8.32-17.66,10.92
	c6.42-4.55,15.79-12.55,15.45-14.32c-0.05-0.24-0.26-0.78-1.28-0.6c-0.1,0.02-0.19,0.06-0.26,0.13c-3.83,3.57-14.11,6.58-16.85,6.43
	c18.46-9.53,36.33-23.87,56.96-40.43c0.14-0.11,0.21-0.29,0.18-0.47c-0.03-0.18-0.15-0.33-0.31-0.39
	c-0.26-0.1-26.17-10.09-31.57-14.83c-5.38-4.71-9.82-15.44-9.86-15.55c-0.1-0.24-0.36-0.36-0.6-0.29c-0.25,0.07-0.4,0.32-0.35,0.57
	c0.1,0.54,2.58,13.32,8.42,19.04c5.19,5.08,23.28,10.65,27.79,11.99L12.1,388.6c-0.14,0.1-0.22,0.26-0.21,0.43l0.57,12.27
	c0.01,0.27,0.23,0.48,0.5,0.48H500v-1H13.43z"/>
<polyline class="st1" points="338.92,215.34 345.3,195.3 359.73,182.86 369.05,202.02 361.64,227.35 343.18,218.04 349.63,196.88 
	364.69,184.43 388.64,196.1 399.78,213.42 370.18,204.72 363.21,227.79 389.42,231.1 394.65,213.25 399.35,214.73 394.99,231.62 
	408,235.58 "/>
<path class="st1" d="M299.42,205.23"/>
</svg>
