<?xml version="1.0" encoding="utf-8"?>
<!-- Generator: Adobe Illustrator 27.7.0, SVG Export Plug-In . SVG Version: 6.00 Build 0)  -->
<svg version="1.1" id="line_art" xmlns="http://www.w3.org/2000/svg" xmlns:xlink="http://www.w3.org/1999/xlink" x="0px" y="0px"
	 viewBox="0 0 1128.9 543.7" style="enable-background:new 0 0 1128.9 543.7;" xml:space="preserve">
<style type="text/css">
	.st0{fill:none;stroke:#231F20;stroke-width:4;stroke-linecap:round;stroke-linejoin:round;stroke-miterlimit:10;}
</style>
<path class="st0" d="M0,452.9h593.9c-0.9-8.3,2.9-17.5,8.6-25.5c5.4-7.6,12.8-15,17.2-23.3l-71.3-4.9c0,0-47-76.4-49.5-90.3
	c-1.9-10.6,7.6-9.5,18-10c8.5-0.4,175.9,7.4,175.9,7.4c31.1,10.3,62.8,4,92-12.3c34.7-19.3,52.8-49.4,71-83c3.2-5.9,7-17,13.8-18.9
	s17.4,4.3,23.1,7.1c13.8,6.8,25.1,17.2,37.9,25.1c19.6,12.1-5.7,18.7-18.1,24.1c-14,6.1-27.3,17.3-41.2,23.3
	c-5.2,2.3-39.6,6.9-39.4,12.6c0.3,8.7,29.5,14.8,33.3,26.5c5,15.5-16.4,22.8-28,21.7c-4.2-0.4-5-2.3-9.1-1.8c-2.5,0.3-5.1,4.7-8.6,4
	c-5.9-1.2-5.2-10-14.7-4.2c-17.1-3.9,3.3-27.9,8.2-33.8c4-4.8,6.4-11.9,11.4-15.8c5.8-4.5,13.9-7,20.4-9.1
	c6.1-1.9,19.3-4.1,24.8-7.6c0,0,2-47.8,2.2-64.6c0.1-6.3-1.3-11.2-5.8-15.9c-8.6-8.9-11.2,1.1-5.2,7.1c11.1,11.2,41,27,41,27
	c4.3-13.6,35.1-42.6,49-47.4c-7.4-8.7-55.8-52.7-91.5-53.9c-20-0.7-49,24.2-62.6-16.3c-5-15-12.7-28.4-10.1-24.1
	c-1.1,1.1-5.2,4.4-5.8,4.8c-3-5.5-9-11.6-14.4-6c-6.9-9.7-3.6-21.6-13.9-30.8c0-0.1,0.1-0.1,0.1-0.1c-3.6,13.2-33.2,44-49.7,32.5
	c0.2,0.5,28.5,73.9,40.7,80.4c35.5,18.8,51.5-36.6,46.3-61.6c0.1,0,0,0.1,0,0.1c10.8-2.3,14.5-12.2,13.6-22.5
	c-1-11.3-12-16.1-16.6-3.5c4.6-12.5,9.3-60-18-51.4c-12.6-25.6-49.7-17.8-63,3.3c-6.7,10.7-11.1,22-18.8,32.5
	c-4.2,5.8-8.7,8.5-4.2,16.2c2.9,5,11,7.3,15.5,6c4.4,14.1,4.7,25.5,13.3,38.8c7.7,11.9,16.9,23.5-0.2,32.5
	c-14.4,7.5-19.9,13.8-19.9,32.4c0,15,5.8,31.1,11.5,45c6.7,16.3,17.6,31.4,25.4,47.1c6.6,13.3,12.7,26.8,22.5,38.8
	c10.2,12.6,22.5,24.2,34.7,34.8c9.6,8.4,31.5,26.1,31.5,40.2l0.1-0.2c-6.6,6.9-9.6,16.3-16,22.6c-7.9,7.9-20.2,11.5-30.1,15.7
	c-21.4,9.1-44.8,9.6-68,7.3c-15.8-1.5-31.2-4.6-47.2-7.2c-13.4-2.2-29.4-7.4-43.6-5.5c-13.2,1.8-25.6,16.4-29.8,29.3
	c-5.5,16.9,6.5,33.1,21.2,41.8c14.1,8.4,30.6,7.5,46.1,4.5c14.6-2.8,31.2-4.5,46-9.7c28.6-10,42.4-39.3,73.3-44.8
	c13.9-2.5,20.9-5.5,33.7-10.3c14.7-5.5,29-2.7,43.8-4.2c34.4-3.4,47.5-35.9,65.9-60.9c11.7-16,22-31.4,32.2-48.2
	c6.3-10.4,20.5-40.3-0.8-38.8c-13.7,1-31.1,8.4-42.9,15.8c-10.8,6.8-19.2,18.6-30.2,22.2c-0.5,0.9-8.6,14.6-13,19.4
	c-5.2,5.7-8.7,8.5-15.6,11.5c-14.9,6.5-29.3,10.2-45.8,8.7c-28.8-2.6-67.2-7.6-80.4-36.8c-6.3-13.3-14.7-44.7-14.7-44.7
	c-9.1-10.1-34.8-8.7-46.9-5c-0.1-0.1,0.1,1.6,0.2,1.4c18.1,2.8,55.7,12.8,42.8-19.7c-4.4-11.2-29.3-31.6-25.1-45
	c5.4-17.5,19.2,25.2,20.7,30.4c3.4,12.2,15.5,62.2,5.8,72.9l-43.6-3.4c-8-25.9-3.7-91.7,5.2-115.6c5-13.2,4.4-28,18.1-35.3
	c10.6-5.7,27-12.3,38.7-15.2c0,0,11.4,27.1,17.1,33.5c12.4,14.1,25.4,24.3,41.6,20.2c14.6-3.7,22.4-14.9,30-27.3
	c5.1-8.2,17-37.2,5.4-44.6c11.5,6.9,29.6,3.2,43.1,3.7c14.5,0.6,24.7,5.2,36.9,12.3c12.4,7.2,59.1,46.6,71.7,57.1
	c11.8,9.7,23.8,18.6,34.6,29.3c14.2,14.2,18.3,27.9,3.2,38.3c-8.4,5.9-19.3,12.4-29.2,15.9c-10,3.5-21.5,6-31.6,9.2
	c-18.5,5.9-36.2,12.6-54,19.3c-9.3,13.7-20.1,29.3-33.4,42c-10.1,9.6-34.6,31.3-48.5,31.7c0.7-8.1,6.7-14.2,10.4-21.3
	c-15.5-1-31.7,3.4-46.8,1.4c-14.9-2-30.6-12.8-45.3-11.6l11.8,34.9c0.5-0.2,77.2,2.8,77.8,3.4c-0.2-0.1-0.6-0.6-0.6-0.6
	c0.5,0.6-70.7,25.7-70.7,25.7l0,0c-7.2-16-33.6-81.5-40.1-98.5c-7.1-18.5-14-17.7-34.2-18.7c-44.4-2.2-152.4-5.3-161.8-5.3
	c-5.3,0-18.8-0.7-21.4,6.4c-3.2,8.7,62,114,61.4,114.2c26.2,1.8,188.2,12.9,188.2,12.9l81.5-27.6c-6.6,7.3-14.8,15.2-22.1,23.6
	c-9.7,11.2-18.9,23.8-14.1,38.8c4.8,15.2,12.9,28.9,11,46.3c-0.6,5.6-3.9,17.6-10.2,20.2c-9.3,3.8-9-8.1-12.8-14.7
	c-6.5-11.3-17.2-32.7-33.1-30.5c-0.8,1.5-1.1,3.4-1.1,4.9c12.4,7.3,20.7,15.7,27.3,29.5c3.9,8,13.2,34.7-3.1,28
	c-16.4-6.8-39.1-54.6-29.9-68.1c5.9-8.7,26.7-20.1,36.9-18.6c14.5,2.1,23.3,17.9,29.1,29.6c9.3,18.9,10.7,10.1,24.6-1
	c10.3-8.2,49-41,52-50.1c0.6,0.2,0.5,0.7,1.1,0.1c4.1,1.6,8.7,2.2,13.6,2.7c16.5,1.7,34.3-2.9,50.2-1.1c17.4,2.1,27.4,21,11.5,32.5
	c-11.9,8.6-33.1,6.6-48.2,7.4c-19.6,1-42-0.7-60.6,5.1c1.8-9.4,18.5-16.1,25.7-23.2c7.7-7.7,10.8-17.6,15.1-26.5
	c17.7-1.9,35.5-17.3,56.3-15.2c33.6,3.4,34.3,44.1,33.5,45h161.8"/>
</svg>
