<?xml version="1.0" encoding="utf-8"?>
<!-- Generator: Adobe Illustrator 27.6.1, SVG Export Plug-In . SVG Version: 6.00 Build 0)  -->
<svg version="1.1" id="line_art" xmlns="http://www.w3.org/2000/svg" xmlns:xlink="http://www.w3.org/1999/xlink" x="0px" y="0px"
	 viewBox="0 0 1190.6 841.9" style="enable-background:new 0 0 1190.6 841.9;" xml:space="preserve">
<path style="fill:none;stroke:#231F20;stroke-width:4;stroke-linecap:round;stroke-linejoin:round;stroke-miterlimit:10;" d="
	M69.7,696.5h548.4c-0.8-0.9-0.1-41.6,33.5-45c20.8-2.1,38.6,13.3,56.3,15.2c4.3,8.9,7.4,18.8,15.1,26.5c7.2,7.1,23.9,13.8,25.7,23.2
	c-18.6-5.8-41-4.1-60.6-5.1c-15.1-0.8-36.3,1.2-48.2-7.4c-15.9-11.5-5.9-30.4,11.5-32.5c15.9-1.8,33.7,2.8,50.2,1.1
	c4.9-0.5,9.5-1.1,13.6-2.7c0.6,0.6,0.5,0.1,1.1-0.1c3,9.1,41.7,41.9,52,50.1c13.9,11.1,15.3,19.9,24.6,1
	c5.8-11.7,14.6-27.5,29.1-29.6c10.2-1.5,31,9.9,36.9,18.6c9.2,13.5-13.5,61.3-29.9,68.1c-16.3,6.7-7-20-3.1-28
	c6.6-13.8,14.9-22.2,27.3-29.5c0-1.5-0.3-3.4-1.1-4.9c-15.9-2.2-26.6,19.2-33.1,30.5c-3.8,6.6-3.5,18.5-12.8,14.7
	c-6.3-2.6-9.6-14.6-10.2-20.2c-1.9-17.4,6.2-31.1,11-46.3c4.8-15-4.4-27.6-14.1-38.8c-7.3-8.4-15.5-16.3-22.1-23.6l81.5,27.6
	c0,0,162-11.1,188.2-12.9c-0.6-0.2,64.6-105.5,61.4-114.2c-2.6-7.1-16.1-6.4-21.4-6.4c-9.4,0-117.4,3.1-161.8,5.3
	c-20.2,1-27.1,0.2-34.2,18.7c-6.5,17-32.9,82.5-40.1,98.5c0,0,0,0,0,0c0,0-71.2-25.1-70.7-25.7c0,0-0.4,0.5-0.6,0.6
	c0.6-0.6,77.3-3.6,77.8-3.4l11.8-34.9c-14.7-1.2-30.4,9.6-45.3,11.6c-15.1,2-31.3-2.4-46.8-1.4c3.7,7.1,9.7,13.2,10.4,21.3
	c-13.9-0.4-38.4-22.1-48.5-31.7c-13.3-12.7-24.1-28.3-33.4-42c-17.8-6.7-35.5-13.4-54-19.3c-10.1-3.2-21.6-5.7-31.6-9.2
	c-9.9-3.5-20.8-10-29.2-15.9c-15.1-10.4-11-24.1,3.2-38.3c10.8-10.7,22.8-19.6,34.6-29.3c12.6-10.5,59.3-49.9,71.7-57.1
	c12.2-7.1,22.4-11.8,36.9-12.3c13.5-0.5,31.6,3.2,43.1-3.7c-11.6,7.4,0.3,36.4,5.4,44.6c7.6,12.4,15.4,23.6,30,27.3
	c16.2,4.1,29.2-6.1,41.6-20.2c5.7-6.4,17.1-33.5,17.1-33.5c11.7,2.9,28.1,9.5,38.7,15.2c13.7,7.3,13.1,22.1,18.1,35.3
	c8.9,23.9,13.2,89.7,5.2,115.6c0,0-43.6,3.4-43.6,3.4c-9.7-10.7,2.4-60.7,5.8-72.9c1.5-5.2,15.3-47.9,20.7-30.4
	c4.2,13.4-20.7,33.8-25.1,45c-12.9,32.5,24.7,22.5,42.8,19.7c0.1,0.2,0.3-1.5,0.2-1.4c-12.1-3.7-37.8-5.1-46.9,5
	c0,0-8.4,31.4-14.7,44.7c-13.7,29.2-52.1,34.2-80.8,36.7c-16.5,1.5-30.9-2.2-45.8-8.7c-6.9-3-10.4-5.8-15.6-11.5
	c-4.4-4.8-12.5-18.5-13-19.4c-11-3.6-19.4-15.4-30.2-22.2c-11.8-7.4-29.2-14.8-42.9-15.8c-21.3-1.5-7.1,28.4-0.8,38.8
	c10.2,16.8,20.5,32.2,32.2,48.2c18.4,25,31.5,57.5,65.9,60.9c14.8,1.5,29.1-1.3,43.8,4.2c12.8,4.8,19.8,7.8,33.7,10.3
	c30.9,5.5,44.7,34.8,73.3,44.8c14.8,5.2,31.4,6.9,46,9.7c15.5,3,32,3.9,46.1-4.5c14.7-8.7,26.7-24.9,21.2-41.8
	c-4.2-12.9-16.6-27.5-29.8-29.3c-14.2-1.9-30.2,3.3-43.6,5.5c-16,2.6-31.4,5.7-47.2,7.2c-23.2,2.3-46.6,1.8-68-7.3
	c-9.9-4.2-22.2-7.8-30.1-15.7c-6.4-6.3-9.4-15.7-16-22.6c0,0,0.1,0.2,0.1,0.2c0-14.1,21.9-31.8,31.5-40.2
	c12.2-10.6,24.5-22.2,34.7-34.8c9.8-12,15.9-25.5,22.5-38.8c7.8-15.7,18.7-30.8,25.4-47.1c5.7-13.9,11.5-30,11.5-45
	c0-18.6-5.5-24.9-19.9-32.4c-17.1-9-7.9-20.6-0.2-32.5c8.6-13.3,8.9-24.7,13.3-38.8c4.5,1.3,12.6-1,15.5-6c4.5-7.7,0-10.4-4.2-16.2
	c-7.7-10.5-12.1-21.8-18.8-32.5c-13.3-21.1-50.4-28.9-63-3.3c-27.3-8.6-22.6,38.9-18,51.4c-4.6-12.6-15.6-7.8-16.6,3.5
	c-0.9,10.3,2.8,20.2,13.6,22.5c0,0-0.1-0.1,0-0.1c-5.2,25,10.8,80.4,46.3,61.6c12.2-6.5,40.5-79.9,40.7-80.4
	c-16.2,11.5-45.8-19.3-49.4-32.4c0,0,0.1,0,0.1,0.1c-10.3,9.2-7,21.1-13.9,30.8c-5.4-5.6-11.4,0.5-14.4,6c-0.6-0.4-4.7-3.7-5.8-4.8
	c2.6-4.3-5.1,9.1-10.1,24.1c-13.6,40.5-42.6,15.6-62.6,16.3c-35.7,1.2-84.1,45.2-91.5,53.9c13.9,4.8,44.7,33.8,49,47.4
	c0,0,29.9-15.8,41-27c6-6,3.4-16-5.2-7.1c-4.5,4.7-5.9,9.6-5.8,15.9c0.2,16.8,2.2,64.6,2.2,64.6c5.5,3.5,18.7,5.7,24.8,7.6
	c6.5,2.1,14.6,4.6,20.4,9.1c5,3.9,7.4,11,11.4,15.8c4.9,5.9,25.3,29.9,8.2,33.8c-9.5-5.8-8.8,3-14.7,4.2c-3.5,0.7-6.1-3.7-8.6-4
	c-4.1-0.5-4.9,1.4-9.1,1.8c-11.6,1.1-33-6.2-28-21.7c3.8-11.7,33-17.8,33.3-26.5c0.2-5.7-34.2-10.3-39.4-12.6
	c-13.9-6-27.2-17.2-41.2-23.3c-12.4-5.4-37.7-12-18.1-24.1c12.8-7.9,24.1-18.3,37.9-25.1c5.7-2.8,16.3-9,23.1-7.1
	c6.8,1.9,10.6,13,13.8,18.9c18.2,33.6,36.3,63.7,71,83c29.2,16.3,60.9,22.6,92,12.3c0,0,167.4-7.8,175.9-7.4
	c10.4,0.5,19.9-0.6,18,10c-2.5,13.9-49.5,90.3-49.5,90.3l-71.3,4.9c4.4,8.3,11.8,15.7,17.2,23.3c5.7,8,9.5,17.2,8.6,25.5H1139"/>
</svg>
