<?xml version="1.0" encoding="utf-8"?>
<!-- Generator: Adobe Illustrator 27.7.0, SVG Export Plug-In . SVG Version: 6.00 Build 0)  -->
<svg version="1.1" id="Layer_1" xmlns="http://www.w3.org/2000/svg" xmlns:xlink="http://www.w3.org/1999/xlink" x="0px" y="0px"
	 viewBox="0 0 4583.8 2749" style="enable-background:new 0 0 4583.8 2749;" xml:space="preserve">
<style type="text/css">
	.st0{fill:none;stroke:#000000;stroke-width:10.8943;stroke-miterlimit:10;}
</style>
<path class="st0" d="M0,2743.5h514.7c1.3,0,2.1-1.3,1.7-2.4c-9.9-26.6-96.2-261.6-45-263.5c54.2-2.1,799,100.1,821.9,70.9
	c22.9-29.2,106.4-767.7,75.1-782.3c-31.3-14.6-202.4-58.4-352.6-187.8S751,1338.5,723.9,1388.6c-27.1,50.1,21.5,7.9,98,48
	c76.5,40.1-185.7,96-108.5,118.9s202.4-73,91.8-250.3c-110.6-177.3,20.9-298.3,164.8-281.6c143.9,16.7,187.8,120,207.6,99.1
	s61.5-96,142.9-117.9c81.4-21.9,31.3-69.9,36.5-89.7c5.2-19.6,43-16.7,24.6-68.3c-0.3-0.9,0.1-1.8,0.9-2.3c8.1-4,45.6-25.2,10-59.8
	c-39.6-38.6-32.3-105.4-63.6-133.5s-115.8-82.4-154.4,0c-38.6,82.4-90.7,132.5-62.6,180.5c28.2,48,105.4,17.7,75.1,48
	c-30.2,30.2-77.2,22.9-41.7,41.7c35.5,18.8,215.9,55.3,207.6,36.5c-8.3-18.8-177.3-54.2-231.6-12.5c-54.2,41.7-32.3,58.4-112.7,51.1
	s-185.7,31.3-217,15.6c-31.3-15.6,84.5-367.2,147.1-418.3c62.6-51.1,222.2-59.5,297.3-36.5c75.1,22.9,135.2,83.1,121,98
	s-174.2-92.8-274.3-42.8c-100.1,50.1-170,332.7-92.8,345.3c77.2,12.5,191.9,186.7,224.3,249.3c32.3,62.6,72,141.9,120,177.3
	c48,35.5-140.8,49-213.8,84.5c-73,35.5,7-41.6,111.6-53.2c104.6-11.6,92.8-34.4,171.1,4.2c78.2,38.6,152.3,63.6,234.7,86.6
	c82.4,22.9,105.4,51.1,170,56.3c64.7,5.2,137.7,32.3,129.3,54.2c-8.3,21.9-72,177.3-49,185.7c22.9,8.3,105.9,33.7,102.7,38.4
	c-3.2,4.6-57.9,33.4-55.6-13c2.3-46.4,59.8-36.6,60.7-5.6c0.9,31.1-30.6,61.2-3.7,75.6s38.9,1.4,50.5-11.6
	c11.6-13,67.2-50.5,51-69.1c-16.2-18.5-43.1-23.6-59.3-9.3c-16.2,14.4-34.8,40.3-29.2,44.5c5.6,4.2,77,50.5,75.6,52.4
	c-1.4,1.9-25.6,46.4-48.7,22.7s45.9-110.3,78.8-104.3c32.9,6,21.8,38,11.6,47.7c-10.2,9.7-37.1,29.7-35.2,33.8
	c1.6,3.6,23.6,27.6,29.3,33.8c0.7,0.8,0.6,2-0.2,2.7c-6.7,5-33,23.1-42.9,6.2c-11.4-19.5,30.1-76,51.9-67.2
	c21.8,8.8,18.5,35.2,11.6,45.4c-7,10.2-21.3,24.6-3.7,26.9c17.6,2.3,42.2,0.5,39.9-10.7c-2.3-11.1-11.6-72.3-13.9-51.9
	c-2.3,20.4,3.7,59.3,20.4,54.2s51.9-29.2,51-32.5c-0.9-3.2-16.2-70-20.9-58.9c-4.6,11.1,1,77,20.9,70.5
	c19.9-6.5,34.8-29.2,35.2-42.7s-18.1-83-22.7-77c-4.6,6,13.9,98.3,32.5,96c18.5-2.3,33.8-63,23.6-103.8
	c-10.2-40.8-135.4-139.1-149.7-131.2c-14.4,7.9-79.3,60.7-84.4,16.7c-5.1-44,22.7-53.3,38.5-57s50.1-8.2,89,19.8
	c38.9,28,83.4,59.5,92.7,75.7s24.1,56.1,13,47.3c-11.1-8.8-184.5-102-248.5-119.6c-64-17.6-102-48.7-130.7-36.6
	s-48.2,199.3-66.3,208.2c-18.1,8.8-322.7-23.2-406.1-46.8c-83.4-23.6-400.5-176.6-535.4-336.6s-133.5-326.8-68.1-360.2
	c65.4-33.4-62.6-80.7-155.8,33.4c-93.2,114-102.9,627.2-94.6,685.6c8.3,58.4,230.9-215.6,183.6-93.2
	c-47.3,122.4-175.2,69.5-183.6,136.3c-8.3,66.8,324-72.3,251.7-8.3s-251.7,11.1-260.1,75.1s-64,182.2-102.9,279.5
	c-38.9,97.4-47.3,293.5,18.1,324c65.4,30.6,791.3,52.8,784.4,90.4c-6.4,34.6-9.3,128.7-9.7,143.1c0,1,0.8,1.9,1.8,1.9h1630.5
	c1,0,1.8-0.8,1.8-1.8c0.6-28,8.2-380.8,38.9-475.6c32-98.7,150.2-534.1,146-463.1c-4.2,70.9-48.7,207.2-66.8,104.3
	s-23.6-211.4-45.9-315.7s-51.5-315.7-41.7-376.9c9.7-61.2,27.8-236.4,12.5-212.8c-15.3,23.6-26.4,272.6-58.4,324
	s-130.7,153-97.4,210c33.4,57,169.7,115.4,141.9,127.9s-144.6-153-175.2-108.5c-30.6,44.5-112.7,34.8-112.7,64
	c0,29.2,198.9,132.1,144.6,72.3c-54.2-59.8-119.6-79.3-208.6-57c-89,22.3-292.1,45.9-292.1,62.6c0,16.7,29.6,228.4,19.1,258.7
	c-10.4,30.2-51.1-28.2-33.4-40.7c17.7-12.5-1,55.3,67.8,59.5c68.8,4.2,569.5-140.8,614.4-199.2c44.9-58.4,36.5-162.7,25-240.9
	c-11.5-78.2-52.2-523.6,4.2-579.9c56.3-56.3,163.8-90.7,186.7-138.7c22.9-48,31.3-145,0-145c-31.3,0-148.1,22.9-164.8-21.9
	c-16.7-44.9-20.9-133.5-45.9-151.2c-25-17.7-53.2-11.5-42.8-57.4c10.4-45.9,40.7-52.2,25-106.4c-15.6-54.2,21.9-159.6,50.1-182.5
	c28.2-22.9,97-87.6,86.6-36.5c-10.4,51.1-86.6,118.9-32.3,133.5c54.2,14.6,76.1,9.4,72,45.9c-4.2,36.5,22.9,103.3,50.1,55.3
	c27.1-48,6.3-109.5,56.3-107.4c50.1,2.1,82.4,24,54.2,103.3c-28.2,79.3-50.1,46.9-59.5,68.8c-9.4,21.9-2.1,131.4-39.6,189.8
	c-37.6,58.4,27.1,129.3,51.1,136.6c24,7.3,17.7,24,2.1,30.2c-15.6,6.3-41.5,70.5-30.4,84.8c11.1,14.4,76,23.6,77,22.3
	c0.9-1.4,6.5-80.2,25-66.8c16.5,12,50.3,33.9,57.5,38.5c0.8,0.5,1.1,1.5,0.6,2.3c-12.5,24.3-177.8,346-180.5,352
	c-2.8,6.3-18.1-199.6-15.3-274.7c2.8-75.1,22.3-111.3,13.9-103.6c-8.3,7.6-82.8,78.6-66.1,82.8c16.7,4.2,27.1,9.7,10.4,18.8
	c-16.7,9-66.1,59.8-66.1,80c0,20.2,65.4,214.9,76.5,253.8c11.1,38.9,22.9,240.6,18.8,237.8s-22.9-180.8,18.1-217.7
	c41-36.9,347-389.4,341.4-410.3s-48.7-43.8-20.9-61.2c27.8-17.4,89-52.2,89-54.2c0-2.1,31.3-127.3,34.1-132.8
	c2.8-5.6-103.6-82.1-115.4-99.4c-11.8-17.4-138.4-47.3-172.5-120.3c-34.1-73-32.7-196.8-105.7-173.1S3075,121.6,3118.1,88.9
	c43.1-32.7,158.5-83.4,129.3-53.5c-29.2,29.9-239.9,84.8-274.7,134.9c-34.8,50.1-23.6,172.5-57,127.9
	c-33.4-44.5-7.6-110.6,61.9-187.8c69.5-77.2,164.8-106.4,284.4-105c119.6,1.4,172.5,33.4,211.4,101.5c38.9,68.1,52.2,146,43.1,206.5
	c-9,60.5-31.3,164.8-16,186.4c15.3,21.6-171.8,157.9-203.1,198.2c-31.3,40.3-38.2,50.8-22.9,65.4c15.3,14.6,84.1,85.5,98.7,74.4
	c14.6-11.1,158.5-290.7,166.2-272.6c7.6,18.1,93.2,47.3,123.8,65.4s235.7,53.9,306.7,77.9c70.9,24,145,165.8,153.3,204.4
	s66.8,123.1,14.6,101.2c-52.2-21.9-250.3-256.6-189.8-207.6s218,200.3,239.9,279.5s203.4,501.7,164.8,497.5
	c-38.6-4.2-316.1-81.4-290-110.6s294.4,52.2,295.3,138.7c0.9,86.6-101.3,301.4-150.4,377.6s-298.3,409.9-325.4,387
	c-27.1-22.9-215.9-269.1-235.7-291c-19.8-21.9-146-12.5-210.7-44.9c-64.7-32.3-132.5-11.5-80.3,35.5c52.2,46.9,160.6,52.2,153.3,98
	c-7.3,45.9-61.5,78.2-101.2,82.4c-37.5,4-250.9,7.9-273.4,8.3c-1,0-1.9-0.8-1.8-1.9c1.8-41.2,32.3-731.6-0.1-740.7
	c-33.4-9.4-53.2,6.3-50.1,12.5c3.1,6.3,40.7,732.2,62.6,715.5c21.9-16.7-73-732.2,8.3-737.5c77.2-4.9,414.3-9.9,448.8-10.4
	c1.4,0,2.2-1.5,1.6-2.7c-3.7-6.9-15.4-25.1-37.3-27.6c-27.1-3.1-78.2,6.3-73,11.5c5.2,5.2,40.7,120,55.3,121s88.7,13.6,86.6-2.1
	c-2.1-15.6-32.3-96-19.8-94.9c11.8,1,251.6,2.9,279.9,3.1c1.3,0,2.2-1.3,1.7-2.5c-10.6-25.8-99.3-242.8-118.9-342.7
	c-20.9-106.4,101.2-395.3,59.5-365.1c-41.7,30.2-114.7,267-79.3,369.2c35.5,102.2,140.8,352.6,186.7,411
	c45.9,58.4,102.2-59.5,202.4-1s-160.6-6.3-162.7,29.2c-2.1,35.5-73,237.8-122,312.9c-49,75.1-217,133.5-201.3,147.1
	c15.6,13.6,148.1,154.4,136.6,185.7c-11.5,31.3-145,93.9-178.4,105.4c-33.4,11.5-43.8,0-69.9-8.3c-26.1-8.3-60.5-2.1-84.5-20.9
	c-24-18.8-57.4-31.3-57.4-43.8c0-12.5,135.6,92.8,250.3,76.1c114.7-16.7,129.3-117.9,165.8-93.9c36.5,24,45.9,94.9,70.9,68.8
	s159.6-182.5,163.8-124.1c4,56.3,7.1,496.4,7.3,528.1c0,1,0.8,1.8,1.8,1.8h516.1"/>
</svg>
