<?xml version="1.0" encoding="utf-8"?>
<!-- Generator: Adobe Illustrator 27.6.1, SVG Export Plug-In . SVG Version: 6.00 Build 0)  -->
<svg version="1.1" id="Layer_1" xmlns="http://www.w3.org/2000/svg" xmlns:xlink="http://www.w3.org/1999/xlink" x="0px" y="0px"
	 viewBox="0 0 6000 4000" style="enable-background:new 0 0 6000 4000;" xml:space="preserve">
<style type="text/css">
	.st0{fill:#FFFFFF;}
	.st1{fill:none;stroke:#000000;stroke-width:10.8943;stroke-miterlimit:10;}
</style>
<g>
	<rect class="st0" width="6000" height="4000"/>
	<path class="st1" d="M708.09,3369.05h514.74c1.27,0,2.15-1.25,1.71-2.44c-9.92-26.58-96.15-261.57-44.98-263.54
		c54.24-2.09,798.99,100.13,821.94,70.93c22.95-29.21,106.39-767.7,75.1-782.3c-31.29-14.6-202.36-58.41-352.56-187.75
		c-150.2-129.34-264.94-239.91-292.06-189.84c-27.12,50.07,21.53,7.93,98.05,47.98c76.52,40.05-185.67,95.96-108.48,118.91
		c77.19,22.95,202.36-73.01,91.79-250.34c-110.57-177.32,20.86-298.32,164.81-281.63c143.94,16.69,187.75,119.95,207.57,99.09
		c19.82-20.86,61.54-95.96,142.9-117.87c81.36-21.9,31.29-69.89,36.51-89.7c5.16-19.62,43.05-16.75,24.56-68.32
		c-0.31-0.87,0.07-1.85,0.9-2.26c8.09-4,45.56-25.19,10-59.81c-39.64-38.59-32.34-105.35-63.63-133.51
		c-31.29-28.16-115.78-82.4-154.37,0c-38.59,82.4-90.75,132.47-62.58,180.45c28.16,47.98,105.35,17.73,75.1,47.98
		c-30.25,30.25-77.19,22.95-41.72,41.72s215.92,55.28,207.57,36.51c-8.34-18.78-177.32-54.24-231.56-12.52
		c-54.24,41.72-32.34,58.41-112.65,51.11c-80.32-7.3-185.67,31.29-216.96,15.65s84.49-367.16,147.07-418.27
		s222.17-59.46,297.28-36.51c75.1,22.95,135.25,83.11,121,98.05c-14.25,14.94-174.19-92.83-274.33-42.77
		c-100.13,50.07-170.02,332.74-92.83,345.26c77.19,12.52,191.92,186.71,224.26,249.29c32.34,62.58,71.97,141.86,119.95,177.32
		c47.98,35.46-140.81,49.02-213.83,84.49c-73.01,35.46,6.99-41.56,111.61-53.2c104.62-11.63,92.83-34.42,171.06,4.17
		c78.23,38.59,152.29,63.63,234.69,86.57c82.4,22.95,105.35,51.11,170.02,56.33c64.67,5.22,137.69,32.34,129.34,54.24
		c-8.34,21.9-71.97,177.32-49.02,185.67c22.95,8.34,105.93,33.73,102.68,38.36c-3.25,4.64-57.95,33.38-55.63-12.98
		c2.32-46.36,59.8-36.62,60.73-5.56s-30.6,61.19-3.71,75.56c26.89,14.37,38.94,1.39,50.53-11.59
		c11.59-12.98,67.22-50.53,50.99-69.07s-43.11-23.64-59.34-9.27s-34.77,40.33-29.21,44.5c5.56,4.17,76.96,50.53,75.56,52.39
		s-25.64,46.42-48.68,22.72c-23.03-23.71,45.9-110.33,78.81-104.31c32.91,6.03,21.79,38.01,11.59,47.75
		c-10.2,9.74-37.09,29.67-35.23,33.84c1.61,3.63,23.57,27.61,29.26,33.78c0.73,0.79,0.61,2.03-0.25,2.67
		c-6.73,5.04-33.01,23.12-42.92,6.19c-11.4-19.48,30.13-76.03,51.92-67.22s18.54,35.23,11.59,45.43s-21.32,24.57-3.71,26.89
		c17.62,2.32,42.19,0.46,39.87-10.66c-2.32-11.13-11.59-72.32-13.91-51.92c-2.32,20.4,3.71,59.34,20.4,54.24
		c16.69-5.1,51.92-29.21,50.99-32.45c-0.93-3.25-16.23-70-20.86-58.88c-4.64,11.13,0.96,76.96,20.88,70.47s34.75-29.21,35.21-42.65
		c0.46-13.44-18.08-82.98-22.72-76.96c-4.64,6.03,13.91,98.28,32.45,95.96c18.54-2.32,33.84-63.05,23.64-103.84
		s-135.37-139.08-149.74-131.2s-79.27,60.73-84.37,16.69c-5.1-44.04,22.72-53.31,38.48-57.02c15.76-3.71,50.07-8.17,89.01,19.79
		c38.94,27.96,83.45,59.48,92.72,75.71c9.27,16.23,24.11,56.09,12.98,47.29c-11.13-8.81-184.51-101.99-248.48-119.61
		c-63.97-17.62-101.99-48.68-130.73-36.62s-48.21,199.34-66.29,208.15c-18.08,8.81-322.66-23.18-406.1-46.82
		c-83.45-23.64-400.54-176.63-535.44-336.56s-133.51-326.83-68.15-360.21c65.37-33.38-62.58-80.66-155.77,33.38
		c-93.18,114.04-102.92,627.23-94.57,685.64s230.87-215.57,183.58-93.18c-47.29,122.39-175.24,69.54-183.58,136.29
		c-8.34,66.76,324.05-72.32,251.73-8.34c-72.32,63.97-251.73,11.13-260.07,75.1s-63.97,182.19-102.92,279.54
		c-38.94,97.35-47.29,293.45,18.08,324.05c65.37,30.6,791.34,52.85,784.39,90.4c-6.41,34.64-9.28,128.75-9.68,143.13
		c-0.03,1.02,0.79,1.85,1.82,1.85h1630.5c0.99,0,1.8-0.78,1.82-1.77c0.56-28.05,8.2-380.8,38.91-475.6
		c31.99-98.74,150.2-534.05,146.03-463.12c-4.17,70.93-48.68,207.22-66.76,104.31s-23.64-211.4-45.9-315.7
		c-22.25-104.31-51.46-315.7-41.72-376.9c9.74-61.19,27.82-236.43,12.52-212.79s-26.42,272.59-58.41,324.05
		c-31.99,51.46-130.73,152.98-97.35,210s169.67,115.43,141.86,127.95s-144.64-152.98-175.24-108.48
		c-30.6,44.5-112.65,34.77-112.65,63.98c0,29.21,198.88,132.12,144.64,72.32c-54.24-59.8-119.61-79.27-208.61-57.02
		c-89.01,22.25-292.06,45.9-292.06,62.58c0,16.69,29.55,228.43,19.12,258.68c-10.43,30.25-51.11-28.16-33.38-40.68
		s-1.04,55.28,67.8,59.46c68.84,4.17,569.52-140.81,614.37-199.23c44.85-58.41,36.51-162.72,25.03-240.95
		c-11.47-78.23-52.15-523.62,4.17-579.95c56.33-56.33,163.76-90.75,186.71-138.73c22.95-47.98,31.29-144.99,0-144.99
		c-31.29,0-148.12,22.95-164.81-21.9c-16.69-44.85-20.86-133.51-45.9-151.25s-53.2-11.47-42.77-57.37
		c10.43-45.9,40.68-52.15,25.03-106.39c-15.65-54.24,21.9-159.59,50.07-182.54c28.16-22.95,97.01-87.62,86.57-36.51
		c-10.43,51.11-86.57,118.91-32.34,133.51c54.24,14.6,76.14,9.39,71.97,45.9c-4.17,36.51,22.95,103.26,50.07,55.28
		s6.26-109.52,56.33-107.44c50.07,2.09,82.4,23.99,54.24,103.26c-28.16,79.27-50.07,46.94-59.46,68.84
		c-9.39,21.9-2.09,131.43-39.64,189.84c-37.55,58.41,27.12,129.34,51.11,136.64c23.99,7.3,17.73,23.99,2.09,30.25
		s-41.49,70.47-30.36,84.84c11.13,14.37,76.03,23.64,76.96,22.25c0.93-1.39,6.49-80.2,25.03-66.76
		c16.51,11.97,50.29,33.86,57.5,38.52c0.78,0.51,1.05,1.51,0.62,2.34c-12.52,24.35-177.84,346.01-180.51,352.03
		c-2.78,6.26-18.08-199.57-15.3-274.68c2.78-75.1,22.25-111.26,13.91-103.61s-82.75,78.58-66.06,82.75
		c16.69,4.17,27.12,9.74,10.43,18.78c-16.69,9.04-66.06,59.8-66.06,79.97c0,20.17,65.37,214.87,76.49,253.81
		c11.13,38.94,22.95,240.6,18.78,237.82c-4.17-2.78-22.95-180.8,18.08-217.65c41.03-36.86,346.99-389.41,341.43-410.27
		s-48.68-43.81-20.86-61.19c27.82-17.38,89.01-52.15,89.01-54.24c0-2.09,31.29-127.25,34.07-132.82
		c2.78-5.56-103.61-82.05-115.43-99.44c-11.82-17.38-138.38-47.29-172.45-120.3c-34.07-73.01-32.68-196.79-105.7-173.15
		c-73.02,23.64-154.37-108.48-111.26-141.16c43.11-32.68,158.55-83.45,129.34-53.54c-29.21,29.9-239.91,84.84-274.68,134.9
		c-34.77,50.07-23.64,172.45-57.02,127.95c-33.38-44.5-7.65-110.57,61.89-187.75c69.54-77.19,164.81-106.39,284.41-105
		c119.61,1.39,172.45,33.38,211.4,101.53s52.15,146.03,43.11,206.53c-9.04,60.5-31.29,164.81-15.99,186.36
		s-171.76,157.85-203.05,198.18c-31.29,40.33-38.25,50.76-22.95,65.37c15.3,14.6,84.14,85.53,98.74,74.41
		c14.6-11.13,158.55-290.67,166.2-272.59c7.65,18.08,93.18,47.29,123.78,65.37c30.6,18.08,235.73,53.89,306.66,77.88
		c70.93,23.99,144.99,165.85,153.33,204.44c8.34,38.59,66.76,123.08,14.6,101.18c-52.15-21.9-250.34-256.6-189.84-207.57
		s218,200.27,239.91,279.54c21.9,79.27,203.4,501.72,164.81,497.54s-316.05-81.36-289.97-110.57
		c26.08-29.21,294.45,52.15,295.34,138.73c0.89,86.57-101.33,301.45-150.35,377.59s-298.32,409.93-325.44,386.98
		c-27.12-22.95-215.92-269.11-235.73-291.02c-19.82-21.9-146.03-12.52-210.7-44.85c-64.67-32.34-132.47-11.47-80.32,35.46
		c52.15,46.94,160.63,52.15,153.33,98.05c-7.3,45.9-61.54,78.23-101.18,82.4c-37.53,3.95-250.88,7.9-273.44,8.31
		c-1.05,0.02-1.89-0.84-1.84-1.89c1.85-41.2,32.3-731.64-0.09-740.75c-33.38-9.39-53.2,6.26-50.07,12.52
		c3.13,6.26,40.68,732.24,62.58,715.55c21.9-16.69-73.01-732.24,8.34-737.45c77.17-4.95,414.28-9.89,448.79-10.39
		c1.35-0.02,2.21-1.46,1.57-2.66c-3.67-6.88-15.37-25.1-37.31-27.63c-27.12-3.13-78.23,6.26-73.01,11.47s40.68,119.95,55.28,121
		c14.6,1.04,88.66,13.56,86.57-2.09c-2.09-15.65-32.33-95.96-19.82-94.92c11.78,0.98,251.63,2.89,279.95,3.11
		c1.3,0.01,2.18-1.3,1.68-2.5c-10.61-25.78-99.31-242.75-118.91-342.74c-20.86-106.39,101.18-395.32,59.46-365.07
		c-41.72,30.25-114.74,267.03-79.27,369.25c35.46,102.22,140.81,352.56,186.71,410.97s102.22-59.46,202.36-1.04
		c100.13,58.41-160.63-6.26-162.72,29.21c-2.09,35.46-73.02,237.82-122.04,312.92c-49.02,75.1-216.96,133.51-201.31,147.07
		c15.65,13.56,148.12,154.37,136.64,185.67c-11.47,31.29-144.99,93.88-178.37,105.35c-33.38,11.47-43.81,0-69.89-8.34
		s-60.5-2.09-84.49-20.86c-23.99-18.78-57.37-31.29-57.37-43.81s135.6,92.83,250.34,76.14c114.74-16.69,129.34-117.87,165.85-93.88
		c36.51,23.99,45.9,94.92,70.93,68.84c25.03-26.08,159.59-182.54,163.76-124.13c4.02,56.31,7.07,496.45,7.29,528.08
		c0.01,1,0.82,1.79,1.82,1.79h516.14"/>
</g>
</svg>
