<?xml version="1.0" encoding="utf-8"?>
<!-- Generator: Adobe Illustrator 27.7.0, SVG Export Plug-In . SVG Version: 6.00 Build 0)  -->
<svg version="1.1" id="Layer_1" xmlns="http://www.w3.org/2000/svg" xmlns:xlink="http://www.w3.org/1999/xlink" x="0px" y="0px"
	 viewBox="0 0 1851.5 1027.8" style="enable-background:new 0 0 1851.5 1027.8;" xml:space="preserve">
<style type="text/css">
	
		.st0{fill-rule:evenodd;clip-rule:evenodd;fill:none;stroke:#000000;stroke-width:11.0401;stroke-linecap:round;stroke-miterlimit:2.6131;}
</style>
<path class="st0" d="M1280.6,240.6c163.4-68.1,326.9-136.2,415.1-167.9c88.2-31.7,101.2-27.1,49.2,5.7
	c-52,32.8-168.9,93.7-250.3,140.1c-81.3,46.5-127.1,78.5-150.9,96.5c-23.8,18-25.7,22-17,27.2c8.6,5.2,27.7,11.7,43.5,20
	c15.7,8.3,28,18.6,34.4,26.2c6.4,7.6,6.9,12.6,7.1,15.2c0.2,2.6,0.2,3-12.8,12.6c-13,9.7-39,28.7-53.1,39.1
	c-14.1,10.3-16.2,11.9-17.4,4.2c-1.2-7.7-1.4-24.6-0.5-45.3c0.9-20.7,2.9-45.3,6.9-58.9c4-13.7,10.1-16.5,23.3-14.4
	c13.2,2.1,33.7,9.1,54.4,22.5c20.7,13.5,41.6,33.5,62.3,58.5c20.7,25.1,41.1,55.3,52.3,72.9c11.2,17.7,13,22.8,22.8,7.2
	c9.8-15.6,27.4-51.8,49.7-92.5c22.3-40.7,49.2-85.7,91.5-150.8c42.3-65,99.9-150.1,128.9-196.3c29-46.2,29.5-53.7,21.6-56.2
	c-7.9-2.6-24.2-0.2-71.1,12.3c-46.9,12.5-124.5,35.3-221.1,61.3c-96.6,26-212.3,55.3-289,75.3c-76.7,20-114.3,30.7-122.9,36.3
	c-8.6,5.7,11.9,6.3,35.6,14.9c23.7,8.6,50.6,25.2,64.7,34.8c14.1,9.7,15.5,12.5,19,16.4c3.5,3.9,9.1,9.1,16.7,36.9
	c7.7,27.9,17.4,78.5,23.9,106.4c6.5,27.9,9.8,33,7,37.1c-2.8,4.1-11.6,7.1-59.4,73.1c-47.8,66.1-134.4,195.1-209.8,204.5
	c-75.3,9.3-139.3-101.1-241.7-64.3c-102.4,36.8-243.2,220.8-332.8,243.2c-89.6,22.4-128-116.8-195.4-122.5
	c-67.4-5.7-163.7,122.2-260,250"/>
</svg>
